<?xml version="1.0" encoding="UTF-8"?>
<svg width="74px" height="118px" viewBox="0 0 74 118" version="1.1" xmlns="http://www.w3.org/2000/svg" xmlns:xlink="http://www.w3.org/1999/xlink">
    <!-- Generator: Sketch 48.2 (47327) - http://www.bohemiancoding.com/sketch -->
    <desc>Created with Sketch.</desc>
    <defs>
        <polygon id="path-1" points="0 0 83 0 83 122 0 122"></polygon>
    </defs>
    <g id="Designskisser" stroke="none" stroke-width="1" fill="none" fill-rule="evenodd">
        <g id="Oljefondet_V1" transform="translate(-271.000000, -3097.000000)">
            <g id="Group-4" transform="translate(133.000000, 3057.000000)">
                <g id="Group-18" transform="translate(138.000000, 40.000000)">
                    <mask id="mask-2" fill="white">
                        <use xlink:href="#path-1"></use>
                    </mask>
                    <g id="Clip-2"></g>
                    <path d="M52.1959246,49.533577 C52.8028291,55.2713834 53.5648017,60.8317319 53.9471248,66.4162792 C54.6235425,76.2893931 52.6905384,85.6032457 47.4850625,94.1319813 C44.7633498,98.5953171 41.5202875,102.647273 38.0927477,106.56748 C37.8013266,106.898197 37.5901131,107.301511 37.3414694,107.66987 C37.4002884,107.790864 37.4591073,107.911858 37.5179262,108.032853 C39.0044412,107.858083 40.5123449,107.796242 41.9721239,107.495101 C56.0458914,104.607377 65.9381671,91.3652509 63.4303415,75.5015875 C62.5133008,69.7126947 60.3664096,64.4077781 57.644697,59.3018295 C55.9068648,56.0403678 54.0487211,52.8434363 52.1959246,49.533577 Z M36.9885558,-6 C42.8891646,12.6492152 51.6558598,29.9352308 61.681815,46.62972 C65.3981023,52.8165487 68.9646688,59.108239 71.1463166,66.0452308 C74.3653166,76.2705718 74.7529869,86.4959128 70.0421248,96.3824705 C64.5104711,107.987144 55.3454113,115.182256 42.6779512,117.220334 C23.2463133,120.350046 5.50973023,108.299039 0.953936213,89.2169344 C-0.342753987,83.7856463 -0.201053821,78.3247818 0.686577409,72.8531623 C1.97524684,64.9105755 5.45893206,57.8364572 9.33028754,50.9263529 C13.6240699,43.2580193 18.0782676,35.6811035 22.249065,27.945551 C27.9812377,17.3195852 32.4461297,6.13166939 36.2747078,-5.31705585 C36.3495683,-5.54560015 36.4297759,-5.7714557 36.50731,-6 L36.9885558,-6 Z" id="Fill-1" fill="#579BBC" mask="url(#mask-2)"></path>
                    <path d="M52.1959246,49.533577 C54.0487211,52.8434363 55.9068648,56.0403678 57.644697,59.3018295 C60.3664096,64.4077781 62.5133008,69.7126947 63.4303415,75.5015875 C65.9381671,91.3652509 56.0458914,104.607377 41.9721239,107.495101 C40.5123449,107.796242 39.0044412,107.858083 37.5179262,108.032853 C37.4591073,107.911858 37.4002884,107.790864 37.3414694,107.66987 C37.5901131,107.301511 37.8013266,106.898197 38.0927477,106.56748 C41.5202875,102.647273 44.7633498,98.5953171 47.4850625,94.1319813 C52.6905384,85.6032457 54.6235425,76.2893931 53.9471248,66.4162792 C53.5648017,60.8317319 52.8028291,55.2713834 52.1959246,49.533577" id="Fill-3" fill="#D4E5ED" mask="url(#mask-2)"></path>
                </g>
            </g>
        </g>
    </g>
</svg>
