<svg xmlns="http://www.w3.org/2000/svg" xmlns:xlink="http://www.w3.org/1999/xlink" version="1.1" x="0px" y="0px" viewBox="0 0 30 30" style="enable-background:new 0 0 30 30;" xml:space="preserve">
<style type="text/css">
	.st0{fill:none;stroke:#005B86;stroke-miterlimit:10;}
	.st1{fill:#FFFFFF;}
	.st2{fill:#F5F5F5;}
	.st3{clip-path:url(#SVGID_2_);}
	.st4{clip-path:url(#SVGID_4_);fill:#F2F2F2;}
	.st5{clip-path:url(#SVGID_6_);}
	.st6{clip-path:url(#SVGID_8_);fill:#F2F2F2;}
	.st7{clip-path:url(#SVGID_10_);}
	.st8{clip-path:url(#SVGID_12_);fill:#F2F2F2;}
	.st9{clip-path:url(#SVGID_14_);}
	.st10{clip-path:url(#SVGID_16_);fill:#F2F2F2;}
	.st11{clip-path:url(#SVGID_18_);}
	.st12{clip-path:url(#SVGID_20_);fill:#F2F2F2;}
	.st13{clip-path:url(#SVGID_22_);}
	.st14{clip-path:url(#SVGID_24_);fill:#F2F2F2;}
	.st15{display:none;}
	.st16{display:inline;}
	.st17{fill:#FFFFFF;stroke:#005987;stroke-width:2;stroke-miterlimit:10;}
	.st18{fill:none;stroke:#005987;stroke-width:2;stroke-miterlimit:10;}
	.st19{fill:none;stroke:#005B86;stroke-width:2;stroke-miterlimit:10;}
	.st20{fill:#FFFFFF;stroke:#005B86;stroke-width:2;stroke-miterlimit:10;}
	.st21{fill:#005B86;}
	.st22{display:inline;fill:none;stroke:#005987;stroke-width:2;stroke-miterlimit:10;}
	.st23{display:inline;opacity:0.2;fill:none;stroke:#005987;stroke-width:0;stroke-miterlimit:10;}
	.st24{display:inline;fill:none;stroke:#1475A4;stroke-width:2;stroke-miterlimit:10;}
	.st25{fill:none;stroke:#1475A4;stroke-width:2;stroke-miterlimit:10;}
	.st26{fill:#1475A4;}
	.st27{display:inline;fill:none;stroke:#005B86;stroke-width:2;stroke-miterlimit:10;}
	.st28{fill:#FFFFFF;stroke:#1475A4;stroke-width:2;stroke-miterlimit:10;}
	.st29{display:inline;fill:#FFFFFF;stroke:#005987;stroke-width:2;stroke-miterlimit:10;}
	.st30{display:inline;fill:#FFFFFF;stroke:#005B86;stroke-width:2;stroke-miterlimit:10;}
	.st31{fill:none;stroke:#005B86;stroke-width:2;stroke-linecap:round;stroke-linejoin:round;stroke-miterlimit:10;}
	.st32{display:inline;fill:none;stroke:#005987;stroke-width:2;stroke-linecap:round;stroke-linejoin:round;stroke-miterlimit:10;}
	.st33{fill:#4991B8;stroke:#005987;stroke-width:2;stroke-miterlimit:10;}
	.st34{opacity:0.2;fill:#4991B8;stroke:#005987;stroke-width:0;stroke-miterlimit:10;}
	.st35{fill:#DCE9F1;stroke:#005987;stroke-width:2;stroke-miterlimit:10;}
	.st36{fill:#FFFFFF;stroke:#005987;stroke-width:2;stroke-linecap:round;stroke-miterlimit:10;}
	.st37{fill:#DCE9F1;stroke:#1475A4;stroke-width:2;stroke-miterlimit:10;}
	.st38{display:inline;fill:#FFFFFF;}
	.st39{display:inline;fill:#FFFFFF;stroke:#1475A4;stroke-width:2;stroke-miterlimit:10;}
	.st40{display:inline;fill:none;stroke:#1475A4;stroke-width:2;stroke-linecap:round;stroke-linejoin:round;stroke-miterlimit:10;}
	.st41{opacity:0.2;fill:none;stroke:#1475A4;stroke-width:2;stroke-miterlimit:10;}
	.st42{clip-path:url(#SVGID_26_);fill:none;stroke:#1475A4;stroke-width:2;stroke-miterlimit:10;}
	.st43{fill:#F2F2F2;}
	.st44{fill:none;stroke:#1475A4;stroke-width:2;stroke-linecap:round;stroke-linejoin:round;stroke-miterlimit:10;}
	.st45{fill:#1475A4;stroke:#1475A4;stroke-width:0.25;stroke-miterlimit:10;}
	.st46{fill:#DCE9F1;}
	.st47{fill:none;stroke:#1475A4;stroke-width:1.8;stroke-miterlimit:5;}
	.st48{fill:none;stroke:#1475A4;stroke-width:1.8;stroke-linecap:round;stroke-miterlimit:10;}
	.st49{fill:none;stroke:#1475A4;stroke-width:1.8;stroke-miterlimit:10;}
</style>
<g id="Underlag">
</g>
<g id="Alternativer" class="st15">
	<path class="st24" d="M95.6-125.9l-12.7,13.8c-0.5,0.6-1.3,0.9-2,0.9H56.2c-0.2,0-0.4,0-0.6-0.1l-13-3.1c-1.1-0.3-2.2,0.1-2.8,1   l-6.7,8.6c-0.4,0.5-0.9,0.8-1.5,1l-11.7,3.2c-1.2,0.3-2.1,1.4-2.1,2.7v4.9c0,0.9,0.4,1.7,1.1,2.2l0,0c1.8,1.4,1.2,4.3-1.1,4.9   L6-83.2c-1.2,0.3-2.1,1.4-2.1,2.7v15.1c0,1.7,1.6,3,3.3,2.7l13.3-2.4c0.6-0.1,1.1-0.4,1.5-0.8l13-13.3c0.7-0.7,1.7-1,2.6-0.8   l5.2,1.2c1.2,0.3,2.1,1.3,2.2,2.5l0.3,4.3c0.1,1.9,2.1,3.1,3.9,2.3l6.9-3c1.8-0.8,3.9,0.5,3.9,2.5c0.1,4.9,0.2,12.5-0.1,13.3   C59.6-56,51.5-49.4,48-46.6c-1,0.8-2.3,0.8-3.3,0.1l-12-8.1c-0.6-0.4-1.4-0.6-2.1-0.4l-19.5,4.2c-1,0.2-1.8,0.9-2.1,1.9L2.5-28   c-0.3,1,0,2.2,0.8,2.9l11.4,10c0.5,0.4,1.2,0.7,1.8,0.7h11.1c1.6,0,2.9,1.4,2.8,3L35,6.5c-0.1,0.6,0.1,1.2,0.4,1.7L42.8,20   c0.5,0.8,1.4,1.3,2.4,1.3h11.5c1,0,1.9-0.5,2.4-1.4L79.5-17c0.6-1.1,0.4-2.4-0.4-3.3L72.7-27c-0.3-0.3-0.5-0.7-0.7-1.1l-3.2-11   c-0.1-0.4-0.1-0.8-0.1-1.3l1.1-6.3c0.2-1.3,1.3-2.2,2.6-2.3L86.5-50c1.5-0.1,2.7-1.4,2.6-3l-0.4-6.3c-0.1-1.2,0.6-2.3,1.8-2.8   l3.4-1.3c1.1-0.4,2.3-0.1,3.1,0.8l8.7,9.8c0.2,0.3,0.4,0.6,0.6,1l3.6,11.1c0.3,1,1.3,1.8,2.3,1.9l3.5,0.4c1.1,0.1,2.2-0.4,2.7-1.4   l4.5-7.9c1.1-1.9,3.9-1.9,4.9,0.1l6.5,13.1c0.2,0.4,0.5,0.8,0.9,1l17.7,12.7"/>
	<circle class="st24" cx="67.5" cy="-43.2" r="89.7"/>
	<path class="st24" d="M95.6-125.9l-12.7,13.8c-0.5,0.6-1.3,0.9-2,0.9H56.2c-0.2,0-0.4,0-0.6-0.1l-13-3.1c-1.1-0.3-2.2,0.1-2.8,1   l-6.7,8.6c-0.4,0.5-0.9,0.8-1.5,1l-11.7,3.2c-1.2,0.3-2.1,1.4-2.1,2.7v4.9c0,0.9,0.4,1.7,1.1,2.2l0,0c1.8,1.4,1.2,4.3-1.1,4.9   L6-83.2c-1.2,0.3-2.1,1.4-2.1,2.7v15.1c0,1.7,1.6,3,3.3,2.7l13.3-2.4c0.6-0.1,1.1-0.4,1.5-0.8l13-13.3c0.7-0.7,1.7-1,2.6-0.8   l5.2,1.2c1.2,0.3,2.1,1.3,2.2,2.5l0.3,4.3c0.1,1.9,2.1,3.1,3.9,2.3l6.9-3c1.8-0.8,3.9,0.5,3.9,2.5c0.1,4.9,0.2,12.5-0.1,13.3   C59.6-56,51.5-49.4,48-46.6c-1,0.8-2.3,0.8-3.3,0.1l-12-8.1c-0.6-0.4-1.4-0.6-2.1-0.4l-19.5,4.2c-1,0.2-1.8,0.9-2.1,1.9L2.5-28   c-0.3,1,0,2.2,0.8,2.9l11.4,10c0.5,0.4,1.2,0.7,1.8,0.7h11.1c1.6,0,2.9,1.4,2.8,3L35,6.5c-0.1,0.6,0.1,1.2,0.4,1.7L42.8,20   c0.5,0.8,1.4,1.3,2.4,1.3h11.5c1,0,1.9-0.5,2.4-1.4L79.5-17c0.6-1.1,0.4-2.4-0.4-3.3L72.7-27c-0.3-0.3-0.5-0.7-0.7-1.1l-3.2-11   c-0.1-0.4-0.1-0.8-0.1-1.3l1.1-6.3c0.2-1.3,1.3-2.2,2.6-2.3L86.5-50c1.5-0.1,2.7-1.4,2.6-3l-0.4-6.3c-0.1-1.2,0.6-2.3,1.8-2.8   l3.4-1.3c1.1-0.4,2.3-0.1,3.1,0.8l8.7,9.8c0.2,0.3,0.4,0.6,0.6,1l3.6,11.1c0.3,1,1.3,1.8,2.3,1.9l3.5,0.4c1.1,0.1,2.2-0.4,2.7-1.4   l4.5-7.9c1.1-1.9,3.9-1.9,4.9,0.1l6.5,13.1c0.2,0.4,0.5,0.8,0.9,1l17.7,12.7"/>
	<circle class="st24" cx="67.5" cy="-43.2" r="89.7"/>
	<path class="st24" d="M99.1,58c-10,3.1-20.5,4.8-31.5,4.8c-58.5,0-106-47.5-106-106c0-49.3,33.7-90.8,79.3-102.6"/>
</g>
<g id="Artwork">
	<path class="st26" d="M15.8,27.5h0.9V16.5l3.9,0l0.8-6.4h-4.7V8.1c0-0.3,0-0.5,0.1-0.7C16.9,7.1,16.9,7,17,6.9   c0.1-0.1,0.5-0.2,1.1-0.2h3.4V0.9l-0.8-0.1c-1.2-0.1-2.4-0.2-3.6-0.2l-0.1,0l0,0.9V0.6c-1.9,0-3.7,0.6-4.9,1.8   c-1.2,1.2-1.9,3-1.9,5.2v2.5l-4,0v6.4h4l0,11.8h6.6v-0.9H15.8v-0.9H12l0-11.8H8v-2.8h4V7.6c0-1.8,0.5-3.1,1.4-3.9   c0.8-0.8,2.1-1.3,3.7-1.3l0,0h0.1c1.1,0,2.3,0.1,3.4,0.2l0.1-0.9h-0.9v3.2l-1.6,0c-0.6,0-1,0.1-1.5,0.2c-0.3,0.1-0.6,0.3-0.9,0.5   c-0.4,0.3-0.6,0.8-0.7,1.2c-0.1,0.4-0.1,0.8-0.1,1.3v3.9h4.5L19,14.7l-4.1,0v12.7H15.8v-0.9V27.5z"/>
</g>
</svg>