<?xml version="1.0" encoding="UTF-8"?>
<svg width="27px" height="27px" viewBox="0 0 27 27" version="1.1" xmlns="http://www.w3.org/2000/svg" xmlns:xlink="http://www.w3.org/1999/xlink">
    <!-- Generator: Sketch 50.2 (55047) - http://www.bohemiancoding.com/sketch -->
    <title>Shape</title>
    <desc>Created with Sketch.</desc>
    <defs></defs>
    <g id="Page-1" stroke="none" stroke-width="1" fill="none" fill-rule="evenodd">
        <g id="footer-icon-facebook" fill="#FFFFFF" fill-rule="nonzero">
            <path d="M0,0 L0,27 L14.445,27 C14.445,23.535 14.445,20.07 14.445,16.56 C13.275,16.56 12.105,16.56 10.935,16.56 C10.935,15.21 10.935,13.86 10.935,12.465 C12.105,12.465 13.275,12.465 14.445,12.465 C14.445,12.375 14.445,12.33 14.445,12.24 C14.445,11.25 14.445,10.305 14.445,9.315 C14.445,8.325 14.625,7.425 15.075,6.525 C15.93,4.95 17.325,4.23 19.035,4.05 C20.25,3.96 21.465,4.05 22.68,4.14 C22.815,4.14 22.86,4.185 22.86,4.32 C22.86,5.445 22.86,6.525 22.86,7.65 C22.86,7.695 22.86,7.74 22.86,7.83 C22.77,7.83 22.68,7.83 22.635,7.83 C21.87,7.83 21.06,7.83 20.295,7.875 C19.395,7.92 18.9,8.325 18.765,9.135 C18.72,9.27 18.72,9.45 18.72,9.585 C18.72,10.485 18.72,11.385 18.72,12.285 C18.72,12.33 18.72,12.375 18.72,12.42 C20.07,12.42 21.42,12.42 22.725,12.42 C22.725,12.51 22.725,12.555 22.725,12.6 C22.545,13.86 22.41,15.075 22.23,16.335 C22.23,16.47 22.14,16.515 22.005,16.515 C20.97,16.515 19.935,16.515 18.9,16.515 C18.81,16.515 18.765,16.515 18.675,16.515 C18.675,19.98 18.675,23.445 18.675,26.955 L27,26.955 L27,0 L0,0 Z" id="Shape"></path>
        </g>
    </g>
</svg>