<svg xmlns="http://www.w3.org/2000/svg" xmlns:xlink="http://www.w3.org/1999/xlink" version="1.1" x="0px" y="0px" viewBox="0 0 610 342" style="enable-background:new 0 0 610 342;" xml:space="preserve">
<style type="text/css">
	.st0{fill:none;stroke:#005B86;stroke-miterlimit:10;}
	.st1{fill:#FFFFFF;}
	.st2{fill:#F5F5F5;}
	.st3{clip-path:url(#SVGID_2_);}
	.st4{clip-path:url(#SVGID_4_);fill:#F2F2F2;}
	.st5{clip-path:url(#SVGID_6_);}
	.st6{clip-path:url(#SVGID_8_);fill:#F2F2F2;}
	.st7{clip-path:url(#SVGID_10_);}
	.st8{clip-path:url(#SVGID_12_);fill:#F2F2F2;}
	.st9{clip-path:url(#SVGID_14_);}
	.st10{clip-path:url(#SVGID_16_);fill:#F2F2F2;}
	.st11{clip-path:url(#SVGID_18_);}
	.st12{clip-path:url(#SVGID_20_);fill:#F2F2F2;}
	.st13{clip-path:url(#SVGID_22_);}
	.st14{clip-path:url(#SVGID_24_);fill:#F2F2F2;}
	.st15{display:none;}
	.st16{display:inline;}
	.st17{fill:#FFFFFF;stroke:#005987;stroke-width:2;stroke-miterlimit:10;}
	.st18{fill:none;stroke:#005987;stroke-width:2;stroke-miterlimit:10;}
	.st19{fill:none;stroke:#005B86;stroke-width:2;stroke-miterlimit:10;}
	.st20{fill:#FFFFFF;stroke:#005B86;stroke-width:2;stroke-miterlimit:10;}
	.st21{fill:#005B86;}
	.st22{display:inline;fill:none;stroke:#005987;stroke-width:2;stroke-miterlimit:10;}
	.st23{display:inline;opacity:0.2;fill:none;stroke:#005987;stroke-width:0;stroke-miterlimit:10;}
	.st24{display:inline;fill:none;stroke:#1475A4;stroke-width:2;stroke-miterlimit:10;}
	.st25{fill:none;stroke:#1475A4;stroke-width:2;stroke-miterlimit:10;}
	.st26{fill:#1475A4;}
	.st27{display:inline;fill:none;stroke:#005B86;stroke-width:2;stroke-miterlimit:10;}
	.st28{fill:#FFFFFF;stroke:#1475A4;stroke-width:2;stroke-miterlimit:10;}
	.st29{display:inline;fill:#FFFFFF;stroke:#005987;stroke-width:2;stroke-miterlimit:10;}
	.st30{display:inline;fill:#FFFFFF;stroke:#005B86;stroke-width:2;stroke-miterlimit:10;}
	.st31{fill:none;stroke:#005B86;stroke-width:2;stroke-linecap:round;stroke-linejoin:round;stroke-miterlimit:10;}
	.st32{display:inline;fill:none;stroke:#005987;stroke-width:2;stroke-linecap:round;stroke-linejoin:round;stroke-miterlimit:10;}
	.st33{fill:#4991B8;stroke:#005987;stroke-width:2;stroke-miterlimit:10;}
	.st34{opacity:0.2;fill:#4991B8;stroke:#005987;stroke-width:0;stroke-miterlimit:10;}
	.st35{fill:#DCE9F1;stroke:#005987;stroke-width:2;stroke-miterlimit:10;}
	.st36{fill:#FFFFFF;stroke:#005987;stroke-width:2;stroke-linecap:round;stroke-miterlimit:10;}
	.st37{fill:#DCE9F1;stroke:#1475A4;stroke-width:2;stroke-miterlimit:10;}
	.st38{display:inline;fill:#FFFFFF;}
	.st39{display:inline;fill:#FFFFFF;stroke:#1475A4;stroke-width:2;stroke-miterlimit:10;}
	.st40{display:inline;fill:none;stroke:#1475A4;stroke-width:2;stroke-linecap:round;stroke-linejoin:round;stroke-miterlimit:10;}
	.st41{opacity:0.2;fill:none;stroke:#1475A4;stroke-width:2;stroke-miterlimit:10;}
	.st42{clip-path:url(#SVGID_26_);fill:none;stroke:#1475A4;stroke-width:2;stroke-miterlimit:10;}
	.st43{fill:#F2F2F2;}
	.st44{fill:none;stroke:#1475A4;stroke-width:2;stroke-linecap:round;stroke-linejoin:round;stroke-miterlimit:10;}
	.st45{fill:#1475A4;stroke:#1475A4;stroke-width:0.25;stroke-miterlimit:10;}
	.st46{fill:#DCE9F1;}
	.st47{fill:none;stroke:#1475A4;stroke-width:1.8;stroke-miterlimit:5;}
	.st48{fill:none;stroke:#1475A4;stroke-width:1.8;stroke-linecap:round;stroke-miterlimit:10;}
	.st49{fill:none;stroke:#1475A4;stroke-width:1.8;stroke-miterlimit:10;}
</style>
<g id="Underlag">
</g>
<g id="Alternativer" class="st15">
</g>
<g id="Artwork">
	<g>
		<line class="st25" x1="306.8" y1="233" x2="313.5" y2="255.9"/>
		<line class="st25" x1="250.4" y1="42.2" x2="257.6" y2="66.3"/>
		<path class="st25" d="M307,70.4l-12.3,13.3c-0.5,0.6-1.2,0.9-2,0.9h-23.8c-0.2,0-0.4,0-0.6-0.1l-12.6-3c-1-0.2-2.1,0.1-2.7,1    l-6.4,8.3c-0.4,0.5-0.9,0.8-1.4,0.9l-11.4,3.1c-1.2,0.3-2,1.4-2,2.6v4.7c0,0.8,0.4,1.6,1,2.1l0,0c1.8,1.4,1.2,4.2-1,4.7l-11.4,2.8    c-1.2,0.3-2.1,1.4-2.1,2.6V129c0,1.7,1.5,2.9,3.2,2.6l12.9-2.3c0.6-0.1,1.1-0.4,1.4-0.8l12.6-12.9c0.7-0.7,1.6-1,2.5-0.7l5,1.1    c1.2,0.3,2,1.2,2.1,2.4l0.3,4.2c0.1,1.9,2.1,3,3.8,2.3l6.6-3c1.8-0.8,3.7,0.5,3.8,2.4c0.1,4.7,0.2,12.1-0.1,12.9    c-0.3,0.9-8.1,7.2-11.5,9.9c-0.9,0.7-2.2,0.8-3.2,0.1l-11.6-7.9c-0.6-0.4-1.4-0.6-2.1-0.4l-18.8,4c-1,0.2-1.7,0.9-2,1.8l-6.3,20.3    c-0.3,1,0,2.1,0.8,2.8l11,9.7c0.5,0.4,1.1,0.7,1.8,0.7h10.7c1.6,0,2.8,1.4,2.7,2.9l4.5,17.3c-0.1,0.6,0.1,1.2,0.4,1.7l7.2,11.4    c0.5,0.8,1.4,1.3,2.3,1.3h11.1c1,0,1.9-0.5,2.4-1.4l19.8-35.7c0.6-1,0.4-2.3-0.4-3.2l-6.2-6.5c-0.3-0.3-0.5-0.7-0.6-1.1l-3.1-10.7    c-0.1-0.4-0.1-0.8-0.1-1.2l1.1-6.1c0.2-1.2,1.2-2.1,2.5-2.2l13.6-0.9c1.5-0.1,2.6-1.4,2.5-2.9l-0.4-6.1c-0.1-1.2,0.6-2.3,1.7-2.7    l3.3-1.3c1.1-0.4,2.2-0.1,3,0.7l8.4,9.5c0.2,0.3,0.4,0.6,0.5,0.9"/>
		<path class="st25" d="M340.1,213c-15.6,15.1-36.8,24.3-60.2,24.3c-47.9,0-86.8-38.9-86.8-86.8s38.9-86.8,86.8-86.8"/>
		<path class="st25" d="M308.5,68.3l-13.7,15.5c-0.5,0.6-1.2,0.9-2,0.9h-23.8c-0.2,0-0.4,0-0.6-0.1l-12.6-3c-1-0.2-2.1,0.1-2.7,1    l-6.4,8.3c-0.4,0.5-0.9,0.8-1.4,0.9l-11.4,3.1c-1.2,0.3-2,1.4-2,2.6v4.7c0,0.8,0.4,1.6,1,2.1l0,0c1.8,1.4,1.2,4.2-1,4.7l-11.4,2.8    c-1.2,0.3-2.1,1.4-2.1,2.6V129c0,1.7,1.5,2.9,3.2,2.6l12.9-2.3c0.6-0.1,1.1-0.4,1.4-0.8l12.6-12.9c0.7-0.7,1.6-1,2.5-0.7l5,1.1    c1.2,0.3,2,1.2,2.1,2.4l0.3,4.2c0.1,1.9,2.1,3,3.8,2.3l6.6-3c1.8-0.8,3.7,0.5,3.8,2.4c0.1,4.7,0.2,12.1-0.1,12.9    c-0.3,0.9-8.1,7.2-11.5,9.9c-0.9,0.7-2.2,0.8-3.2,0.1l-11.6-7.9c-0.6-0.4-1.4-0.6-2.1-0.4l-18.8,4c-1,0.2-1.7,0.9-2,1.8l-6.3,20.3    c-0.3,1,0,2.1,0.8,2.8l11,9.7c0.5,0.4,1.1,0.7,1.8,0.7h10.7c1.6,0,2.8,1.4,2.7,2.9l4.5,17.3c-0.1,0.6,0.1,1.2,0.4,1.7l7.2,11.4    c0.5,0.8,1.4,1.3,2.3,1.3h11.1c1,0,1.9-0.5,2.4-1.4l19.8-35.7c0.6-1,0.4-2.3-0.4-3.2l-6.2-6.5c-0.3-0.3-0.5-0.7-0.6-1.1l-3.1-10.7    c-0.1-0.4-0.1-0.8-0.1-1.2l1.1-6.1c0.2-1.2,1.2-2.1,2.5-2.2l13.6-0.9c1.5-0.1,2.6-1.4,2.5-2.9l-0.4-6.1c-0.1-1.2,0.6-2.3,1.7-2.7    l3.3-1.3c1.1-0.4,2.2-0.1,3,0.7l8.4,9.5c0.2,0.3,0.4,0.6,0.5,0.9l2.3,7.1"/>
		<path class="st25" d="M279.8,237.3c-47.9,0-86.8-38.9-86.8-86.8s38.9-86.8,86.8-86.8c42.1,0,77.2,30,85.1,69.8"/>
		<path class="st25" d="M310.3,248.4c-9.6,3-19.9,4.6-30.5,4.6c-56.6,0-102.6-45.9-102.6-102.6c0-47.7,32.6-87.8,76.8-99.3"/>
		<line class="st25" x1="279.8" y1="253.1" x2="279.8" y2="303.1"/>
		<g>
			<polyline class="st25" points="232.5,313.2 327.2,313.2 322.9,303.1 239.7,303.1    "/>
			<polyline class="st25" points="327.2,313.2 232.5,313.2 236.8,303.1 320,303.1    "/>
		</g>
		<line class="st25" x1="379.3" y1="199" x2="389.7" y2="209.4"/>
		
			<rect x="405.3" y="200.7" transform="matrix(0.7071 -0.7071 0.7071 0.7071 -42.5079 357.6732)" class="st25" width="10.5" height="58.8"/>
		<circle class="st25" cx="353.9" cy="173.6" r="35.9"/>
		<circle class="st25" cx="353.9" cy="173.6" r="27.4"/>
		<path class="st44" d="M296.5,190.8l-5.8,7.6c-0.8,1-0.7,2.5,0.2,3.4l4.5,4.7c1.2,1.2,3.2,1,4.2-0.4l6.2-10    c0.8-1.3,0.3-3.1-1.1-3.8l-5-2.4C298.6,189.5,297.2,189.8,296.5,190.8z"/>
	</g>
</g>
</svg>