<?xml version="1.0" encoding="UTF-8"?>
<svg width="95px" height="95px" viewBox="0 0 95 95" version="1.1" xmlns="http://www.w3.org/2000/svg" xmlns:xlink="http://www.w3.org/1999/xlink">
    <!-- Generator: Sketch 48.2 (47327) - http://www.bohemiancoding.com/sketch -->
    <title>Group 22</title>
    <desc>Created with Sketch.</desc>
    <defs>
        <polygon id="path-1" points="32 25 63 25 63 70 32 70"></polygon>
    </defs>
    <g id="Oljefondet" stroke="none" stroke-width="1" fill="none" fill-rule="evenodd" transform="translate(-336.000000, -2322.000000)">
        <g id="Group-22" transform="translate(336.000000, 2322.000000)">
            <g id="Group-18">
                <circle id="Oval" fill-opacity="0.4" fill="#93BED2" cx="47.5" cy="47.5" r="47.5"></circle>
                <mask id="mask-2" fill="white">
                    <use xlink:href="#path-1"></use>
                </mask>
                <g id="Clip-2"></g>
                <g id="Page-1" mask="url(#mask-2)">
                    <g transform="translate(32.000000, 23.000000)">
                        <path d="M19.5228,20.654 C19.7498,22.788 20.0348,24.856 20.1778,26.933 C20.4308,30.605 19.7078,34.069 17.7608,37.241 C16.7428,38.901 15.5298,40.408 14.2478,41.866 C14.1388,41.989 14.0598,42.139 13.9668,42.276 C13.9888,42.321 14.0108,42.366 14.0328,42.411 C14.5888,42.346 15.1528,42.323 15.6988,42.211 C20.9628,41.137 24.6628,36.212 23.7248,30.312 C23.3818,28.159 22.5788,26.186 21.5608,24.287 C20.9108,23.074 20.2158,21.885 19.5228,20.654 Z M13.8348,0 C16.0418,6.936 19.3208,13.365 23.0708,19.574 C24.4608,21.875 25.7948,24.215 26.6108,26.795 C27.8148,30.598 27.9598,34.401 26.1978,38.078 C24.1288,42.394 20.7008,45.07 15.9628,45.828 C8.6948,46.992 2.0608,42.51 0.3568,35.413 C-0.1282,33.393 -0.0752,31.362 0.2568,29.327 C0.7388,26.373 2.0418,23.742 3.4898,21.172 C5.0958,18.32 6.7618,15.502 8.3218,12.625 C10.4658,8.673 12.1358,4.512 13.5678,0.254 C13.5958,0.169 13.6258,0.085 13.6548,0 L13.8348,0 Z" id="Fill-1" fill="#7CB1CB"></path>
                        <path d="M19.5228,20.654 C20.2158,21.885 20.9108,23.074 21.5608,24.287 C22.5788,26.186 23.3818,28.159 23.7248,30.312 C24.6628,36.212 20.9628,41.137 15.6988,42.211 C15.1528,42.323 14.5888,42.346 14.0328,42.411 C14.0108,42.366 13.9888,42.321 13.9668,42.276 C14.0598,42.139 14.1388,41.989 14.2478,41.866 C15.5298,40.408 16.7428,38.901 17.7608,37.241 C19.7078,34.069 20.4308,30.605 20.1778,26.933 C20.0348,24.856 19.7498,22.788 19.5228,20.654" id="Fill-3" fill="#D4E5ED"></path>
                    </g>
                </g>
            </g>
        </g>
    </g>
</svg>