<?xml version="1.0" encoding="UTF-8"?>
<svg width="27px" height="27px" viewBox="0 0 27 27" version="1.1" xmlns="http://www.w3.org/2000/svg" xmlns:xlink="http://www.w3.org/1999/xlink">
    <!-- Generator: Sketch 50.2 (55047) - http://www.bohemiancoding.com/sketch -->
    <title>Shape</title>
    <desc>Created with Sketch.</desc>
    <defs></defs>
    <g id="Page-1" stroke="none" stroke-width="1" fill="none" fill-rule="evenodd">
        <g id="footer-icon-linkedin" fill="#FFFFFF" fill-rule="nonzero">
            <path d="M0,0 L0,27 L27,27 L27,0 L0,0 Z M8.325,22.905 C8.28,22.905 8.28,22.905 8.235,22.905 C6.93,22.905 5.58,22.905 4.275,22.905 C4.185,22.905 4.185,22.86 4.185,22.815 C4.185,20.475 4.185,18.18 4.185,15.84 C4.185,14.625 4.185,13.41 4.185,12.195 C4.185,11.61 4.185,11.025 4.185,10.44 C4.185,10.395 4.185,10.395 4.185,10.35 C5.58,10.35 6.975,10.35 8.37,10.35 C8.325,14.535 8.325,18.72 8.325,22.905 Z M7.92,8.01 C7.605,8.37 7.2,8.595 6.705,8.685 C6.12,8.775 5.58,8.775 5.04,8.505 C4.23,8.145 3.825,7.47 3.825,6.57 C3.825,5.535 4.5,4.725 5.535,4.545 C5.715,4.5 5.94,4.5 6.12,4.455 C6.615,4.455 7.065,4.545 7.47,4.815 C8.01,5.175 8.325,5.625 8.415,6.255 C8.505,6.93 8.37,7.515 7.92,8.01 Z M22.86,22.905 C21.465,22.905 20.025,22.905 18.63,22.905 C18.63,22.86 18.63,22.815 18.63,22.815 C18.63,20.52 18.63,18.27 18.63,15.975 C18.63,15.48 18.585,14.985 18.405,14.535 C18.27,14.085 18,13.725 17.55,13.5 C17.235,13.365 16.92,13.32 16.56,13.32 C15.75,13.365 15.21,13.77 14.85,14.445 C14.625,14.85 14.535,15.255 14.535,15.705 C14.535,18.09 14.535,20.43 14.535,22.815 C14.535,22.86 14.535,22.905 14.535,22.95 C13.095,22.95 11.7,22.95 10.26,22.95 C10.26,18.765 10.26,14.58 10.26,10.395 C11.655,10.395 13.095,10.395 14.49,10.395 C14.49,10.98 14.49,11.565 14.49,12.105 C14.49,12.105 14.49,12.105 14.535,12.105 C14.625,11.97 14.715,11.835 14.805,11.7 C15.435,10.8 16.29,10.305 17.415,10.125 C18.36,9.99 19.26,10.08 20.16,10.485 C20.97,10.845 21.6,11.43 22.05,12.24 C22.41,12.825 22.59,13.5 22.725,14.175 C22.815,14.715 22.86,15.21 22.86,15.75 C22.86,18.09 22.86,20.43 22.86,22.815 C22.86,22.815 22.86,22.86 22.86,22.905 Z" id="Shape"></path>
        </g>
    </g>
</svg>