<svg width="16" height="20" viewBox="0 0 16 20" fill="none" xmlns="http://www.w3.org/2000/svg">
<path d="M11.85 0.15C11.76 0.05 11.63 0 11.5 0H2.5C1.12 0 0 1.12 0 2.5V17.5C0 18.88 1.12 20 2.5 20H13.5C14.88 20 16 18.88 16 17.5V4.5C16 4.37 15.95 4.24 15.85 4.15L11.85 0.15ZM15 17.5C15 18.33 14.33 19 13.5 19H2.5C1.67 19 1 18.33 1 17.5V2.5C1 1.67 1.67 1 2.5 1H11.29L15 4.71V17.5Z" fill="black"/>
<path d="M4 6H10C10.28 6 10.5 5.78 10.5 5.5C10.5 5.22 10.28 5 10 5H4C3.72 5 3.5 5.22 3.5 5.5C3.5 5.78 3.72 6 4 6Z" fill="black"/>
<path d="M3.5 9.5C3.5 9.78 3.72 10 4 10H12C12.28 10 12.5 9.78 12.5 9.5C12.5 9.22 12.28 9 12 9H4C3.72 9 3.5 9.22 3.5 9.5Z" fill="black"/>
<path d="M12 13H4C3.72 13 3.5 13.22 3.5 13.5C3.5 13.78 3.72 14 4 14H12C12.28 14 12.5 13.78 12.5 13.5C12.5 13.22 12.28 13 12 13Z" fill="black"/>
</svg>
