<svg width="576" height="324" viewBox="0 0 576 324" fill="none" xmlns="http://www.w3.org/2000/svg">
<path d="M169.489 250.32H132.884" stroke="#1475A4" stroke-width="3" stroke-miterlimit="10"/>
<path d="M138.341 239.505H174.962" stroke="#1475A4" stroke-width="3" stroke-miterlimit="10"/>
<path d="M128 217.891H164.606" stroke="#1475A4" stroke-width="3" stroke-miterlimit="10"/>
<path d="M164.606 228.706H128" stroke="#1475A4" stroke-width="3" stroke-miterlimit="10"/>
<path d="M134.667 196.277H171.272" stroke="#1475A4" stroke-width="3" stroke-miterlimit="10"/>
<path d="M171.272 207.092H134.667" stroke="#1475A4" stroke-width="3" stroke-miterlimit="10"/>
<path d="M190.157 239.38H226.762" stroke="#1475A4" stroke-width="3" stroke-miterlimit="10"/>
<path d="M229.909 250.18H193.288" stroke="#1475A4" stroke-width="3" stroke-miterlimit="10"/>
<path d="M169.489 260H132.884" stroke="#1475A4" stroke-width="3" stroke-miterlimit="10"/>
<path d="M229.909 259.86H193.288" stroke="#1475A4" stroke-width="3" stroke-miterlimit="10"/>
<path d="M225.382 228.814L188.777 228.317" stroke="#1475A4" stroke-width="3" stroke-miterlimit="10"/>
<path d="M292.004 76.18L297.818 73.958L339.571 58L357.401 104.88" stroke="#1475A4" stroke-width="3" stroke-miterlimit="10"/>
<path d="M292.004 76.1799L162.45 125.67L198.203 219.647" stroke="#1475A4" stroke-width="3" stroke-miterlimit="10"/>
<path d="M248.173 207.278L215.708 219.678" stroke="#1475A4" stroke-width="3" stroke-miterlimit="10"/>
<path d="M302.919 104.879L292.004 76.1799" stroke="#1475A4" stroke-width="3" stroke-miterlimit="10"/>
<path d="M274.515 146.041V131.419H276.329L282.438 139.546C283.275 140.649 284.128 141.799 284.95 142.949C284.95 141.675 284.95 140.198 284.95 138.784V131.419H286.81V146.041H284.996L278.965 137.93C278.112 136.811 277.275 135.661 276.438 134.511C276.438 135.786 276.438 137.262 276.438 138.676V146.025L274.515 146.041Z" fill="#1475A4"/>
<path d="M297.88 131.202C299.368 131.183 300.829 131.608 302.076 132.422C303.324 133.236 304.302 134.403 304.887 135.775C305.472 137.146 305.638 138.661 305.363 140.127C305.089 141.594 304.386 142.945 303.345 144.011C302.303 145.077 300.969 145.808 299.512 146.114C298.055 146.419 296.541 146.284 295.16 145.726C293.78 145.168 292.596 144.212 291.758 142.979C290.92 141.746 290.466 140.292 290.454 138.8C290.42 137.806 290.588 136.816 290.947 135.889C291.306 134.962 291.85 134.118 292.544 133.408C293.238 132.697 294.069 132.136 294.986 131.756C295.904 131.377 296.888 131.189 297.88 131.202ZM297.88 144.487C299.028 144.537 300.164 144.241 301.142 143.638C302.121 143.034 302.896 142.152 303.369 141.103C303.843 140.054 303.992 138.887 303.797 137.752C303.603 136.618 303.074 135.567 302.279 134.737C301.484 133.906 300.458 133.333 299.335 133.091C298.212 132.85 297.043 132.951 295.977 133.381C294.912 133.812 294 134.552 293.358 135.507C292.716 136.461 292.374 137.587 292.376 138.738C292.345 139.482 292.464 140.224 292.726 140.92C292.989 141.617 293.389 142.253 293.904 142.79C294.418 143.327 295.035 143.754 295.719 144.046C296.402 144.338 297.137 144.488 297.88 144.487V144.487Z" fill="#1475A4"/>
<path d="M308.935 131.419H310.857V138.054L317.229 131.404H319.617L313.074 138.21L320.191 145.979H317.726L310.904 138.427V145.963H308.981L308.935 131.419Z" fill="#1475A4"/>
<path d="M190.374 148.9L185.319 135.18L187.025 134.558L195.552 140.059C196.73 140.804 197.924 141.612 199.102 142.389C198.637 141.208 198.11 139.826 197.552 138.505L195.009 131.606L196.792 130.922L201.847 144.642L200.141 145.264L191.614 139.763C190.436 139.018 189.242 138.21 188.063 137.433C188.529 138.629 189.056 139.996 189.614 141.333L192.141 148.263L190.374 148.9Z" fill="#1475A4"/>
<path d="M207.165 126.866C208.557 126.331 210.076 126.222 211.53 126.554C212.984 126.885 214.307 127.643 215.33 128.73C216.354 129.817 217.031 131.185 217.277 132.659C217.523 134.133 217.326 135.647 216.711 137.008C216.097 138.37 215.092 139.518 213.825 140.306C212.558 141.093 211.085 141.486 209.595 141.433C208.105 141.38 206.664 140.885 205.455 140.009C204.247 139.133 203.325 137.918 202.808 136.516C202.445 135.597 202.269 134.615 202.293 133.627C202.316 132.639 202.538 131.665 202.944 130.765C203.351 129.865 203.934 129.056 204.659 128.386C205.384 127.716 206.236 127.199 207.165 126.866ZM211.816 139.297C212.896 138.924 213.841 138.236 214.53 137.321C215.219 136.407 215.62 135.308 215.683 134.164C215.745 133.02 215.467 131.884 214.882 130.899C214.297 129.915 213.433 129.127 212.4 128.637C211.367 128.147 210.212 127.977 209.082 128.148C207.951 128.318 206.897 128.823 206.055 129.597C205.212 130.37 204.618 131.378 204.349 132.491C204.08 133.605 204.148 134.773 204.544 135.848C204.772 136.563 205.142 137.225 205.633 137.792C206.124 138.36 206.725 138.821 207.4 139.148C208.074 139.476 208.808 139.662 209.557 139.695C210.305 139.729 211.053 139.609 211.754 139.344L211.816 139.297Z" fill="#1475A4"/>
<path d="M217.63 123.262L219.413 122.593L221.708 128.809L225.382 120.356L227.615 119.532L223.816 128.172L233.196 133.066L230.902 133.921L221.894 129.259L224.498 136.329L222.7 136.998L217.63 123.262Z" fill="#1475A4"/>
<path d="M447 221.029H257.445V114.172H402.317H447V221.029Z" stroke="#1475A4" stroke-width="3" stroke-miterlimit="10"/>
<path d="M396.084 220.47V114.172" stroke="#1475A4" stroke-width="3" stroke-miterlimit="10"/>
</svg>
