<svg width="576" height="324" viewBox="0 0 576 324" fill="none" xmlns="http://www.w3.org/2000/svg">
<path d="M152 280.621H423" stroke="#1475A4" stroke-width="3" stroke-miterlimit="10"/>
<path d="M315.746 132.146H368.741" stroke="#1475A4" stroke-width="3" stroke-miterlimit="10"/>
<path d="M303.307 62.3231L381.167 127.668V280.621" stroke="#1475A4" stroke-width="3" stroke-miterlimit="10"/>
<path d="M303.307 115.842V42" stroke="#1475A4" stroke-width="3" stroke-miterlimit="10"/>
<path d="M315.746 145.21H368.741" stroke="#1475A4" stroke-width="3" stroke-miterlimit="10"/>
<path d="M315.746 158.287H368.741" stroke="#1475A4" stroke-width="3" stroke-miterlimit="10"/>
<path d="M315.746 171.351H368.741" stroke="#1475A4" stroke-width="3" stroke-miterlimit="10"/>
<path d="M315.746 184.415H368.741" stroke="#1475A4" stroke-width="3" stroke-miterlimit="10"/>
<path d="M315.746 197.491H368.741" stroke="#1475A4" stroke-width="3" stroke-miterlimit="10"/>
<path d="M315.746 210.555H368.741" stroke="#1475A4" stroke-width="3" stroke-miterlimit="10"/>
<path d="M315.746 223.619H368.741" stroke="#1475A4" stroke-width="3" stroke-miterlimit="10"/>
<path d="M356.264 257.083H328.21V280.608H356.264V257.083Z" stroke="#1475A4" stroke-width="3" stroke-miterlimit="10"/>
<path d="M193.45 280.621H233.548V225.813L193.45 260.719V280.621Z" stroke="#1475A4" stroke-width="3" stroke-miterlimit="10"/>
<path d="M316.792 115.969H233.547V280.621H316.792V115.969Z" stroke="#1475A4" stroke-width="3" stroke-miterlimit="10"/>
<path d="M249.035 130.271V147.392" stroke="#1475A4" stroke-width="3" stroke-miterlimit="10"/>
<path d="M262.112 130.271V147.392" stroke="#1475A4" stroke-width="3" stroke-miterlimit="10"/>
<path d="M275.176 130.271V147.392" stroke="#1475A4" stroke-width="3" stroke-miterlimit="10"/>
<path d="M288.24 130.271V147.392" stroke="#1475A4" stroke-width="3" stroke-miterlimit="10"/>
<path d="M301.317 130.271V147.392" stroke="#1475A4" stroke-width="3" stroke-miterlimit="10"/>
<path d="M249.035 156.411V173.52" stroke="#1475A4" stroke-width="3" stroke-miterlimit="10"/>
<path d="M262.112 156.411V173.52" stroke="#1475A4" stroke-width="3" stroke-miterlimit="10"/>
<path d="M275.176 156.411V173.52" stroke="#1475A4" stroke-width="3" stroke-miterlimit="10"/>
<path d="M288.24 156.411V173.52" stroke="#1475A4" stroke-width="3" stroke-miterlimit="10"/>
<path d="M301.317 156.411V173.52" stroke="#1475A4" stroke-width="3" stroke-miterlimit="10"/>
<path d="M249.035 182.552V199.66" stroke="#1475A4" stroke-width="3" stroke-miterlimit="10"/>
<path d="M262.112 182.552V199.66" stroke="#1475A4" stroke-width="3" stroke-miterlimit="10"/>
<path d="M275.176 182.552V199.66" stroke="#1475A4" stroke-width="3" stroke-miterlimit="10"/>
<path d="M288.24 182.552V199.66" stroke="#1475A4" stroke-width="3" stroke-miterlimit="10"/>
<path d="M301.317 182.552V199.66" stroke="#1475A4" stroke-width="3" stroke-miterlimit="10"/>
<path d="M249.035 208.68V225.801" stroke="#1475A4" stroke-width="3" stroke-miterlimit="10"/>
<path d="M262.112 208.68V225.801" stroke="#1475A4" stroke-width="3" stroke-miterlimit="10"/>
<path d="M275.176 208.68V225.801" stroke="#1475A4" stroke-width="3" stroke-miterlimit="10"/>
<path d="M288.24 208.68V225.801" stroke="#1475A4" stroke-width="3" stroke-miterlimit="10"/>
<path d="M301.317 208.68V225.801" stroke="#1475A4" stroke-width="3" stroke-miterlimit="10"/>
</svg>
