<svg width="576" height="324" viewBox="0 0 576 324" fill="none" xmlns="http://www.w3.org/2000/svg">
<path d="M229.218 220.547L196.215 232.808C195.159 229.969 193.019 227.665 190.265 226.404C187.511 225.142 184.368 225.026 181.528 226.081L146.621 132.263C149.461 131.208 151.765 129.067 153.026 126.313C154.288 123.559 154.404 120.417 153.349 117.577L307.207 60.4563C308.267 63.288 310.408 65.5836 313.158 66.8399C315.909 68.0962 319.045 68.2108 321.88 67.1585L344.157 127.135" stroke="#1475A4" stroke-width="3" stroke-miterlimit="10"/>
<path d="M356.407 127.135L324.774 42L128 115.102L178.736 251.696L229.154 232.961" stroke="#1475A4" stroke-width="3" stroke-miterlimit="10"/>
<path d="M271.424 127.135L308.743 113.274L271.424 127.135ZM304.985 103.17L240.49 127.135L304.985 103.17ZM229.218 131.337L182.925 148.511L229.218 131.337ZM229.218 142.761L186.682 158.615L229.218 142.824V142.761ZM229.218 187.252L201.292 197.648L229.218 187.252ZM280.36 100.936L200.112 130.639L280.36 100.936Z" stroke="#1475A4" stroke-width="3" stroke-miterlimit="10"/>
<path d="M447 134.599H237.075V280.32H447V134.599Z" stroke="#1475A4" stroke-width="3" stroke-miterlimit="10"/>
<path d="M435.525 257.256C432.495 257.256 429.589 258.46 427.447 260.602C425.305 262.745 424.101 265.65 424.101 268.68H259.974C259.974 265.65 258.771 262.745 256.628 260.602C254.486 258.46 251.58 257.256 248.55 257.256V157.219C251.58 157.219 254.486 156.015 256.628 153.873C258.771 151.73 259.974 148.825 259.974 145.795H424.101C424.101 148.825 425.305 151.73 427.447 153.873C429.589 156.015 432.495 157.219 435.525 157.219V257.256Z" stroke="#1475A4" stroke-width="3" stroke-miterlimit="10"/>
<path d="M299.273 174.279H384.802" stroke="#1475A4" stroke-width="3" stroke-miterlimit="10"/>
<path d="M276.933 185.056H407.142" stroke="#1475A4" stroke-width="3" stroke-miterlimit="10"/>
<path d="M276.933 195.82H407.142" stroke="#1475A4" stroke-width="3" stroke-miterlimit="10"/>
<path d="M276.933 237.442H329.928" stroke="#1475A4" stroke-width="3" stroke-miterlimit="10"/>
<path d="M354.147 237.442H407.142" stroke="#1475A4" stroke-width="3" stroke-miterlimit="10"/>
<path d="M355.366 227.782C355.366 227.782 373.137 222.958 370.903 214.72C368.668 206.482 355.125 214.72 367.64 226.36C367.64 226.36 373.124 233.456 378.303 227.782L381.629 223.859C381.629 223.859 381.997 229.978 386.807 229.978C391.618 229.978 391.809 226.36 391.809 226.36C392.503 227.45 393.456 228.351 394.584 228.982C395.711 229.614 396.978 229.956 398.27 229.978C402.712 230.054 406.406 228.34 407.155 226.931" stroke="#1475A4" stroke-width="3" stroke-linecap="round" stroke-linejoin="round"/>
</svg>
