<svg width="576" height="324" viewBox="0 0 576 324" fill="none" xmlns="http://www.w3.org/2000/svg">
<path d="M428 43H148V234.642H428V43Z" stroke="#1475A4" stroke-width="3" stroke-miterlimit="10"/>
<path d="M425.449 191.672H148.547" stroke="#1475A4" stroke-width="3" stroke-miterlimit="10"/>
<path d="M257.446 270.046V234.915H318.554V270.046" stroke="#1475A4" stroke-width="3" stroke-miterlimit="10"/>
<path d="M181.961 280H394.02" stroke="#1475A4" stroke-width="3" stroke-miterlimit="10"/>
<path d="M238.133 150.616H219.731V165.31H238.133V150.616Z" stroke="#1475A4" stroke-width="3" stroke-miterlimit="10"/>
<path d="M267.667 136.323H249.265V165.31H267.667V136.323Z" stroke="#1475A4" stroke-width="3" stroke-miterlimit="10"/>
<path d="M297.201 123.471H278.799V165.31H297.201V123.471Z" stroke="#1475A4" stroke-width="3" stroke-miterlimit="10"/>
<path d="M326.717 130.909H308.315V165.31H326.717V130.909Z" stroke="#1475A4" stroke-width="3" stroke-miterlimit="10"/>
<path d="M356.251 111.438H337.849V165.328H356.251V111.438Z" stroke="#1475A4" stroke-width="3" stroke-miterlimit="10"/>
<path d="M219.731 137.545L286.36 97.6011L309.08 111.365L355.941 76.4352" stroke="#1475A4" stroke-width="3" stroke-miterlimit="10"/>
<path d="M338.815 75.6879H356.251V93.1529" stroke="#1475A4" stroke-width="3" stroke-miterlimit="10"/>
</svg>
