<svg width="576" height="324" viewBox="0 0 576 324" fill="none" xmlns="http://www.w3.org/2000/svg">
<path d="M285.597 222.968L292.001 244.675" stroke="#1475A4" stroke-width="2" stroke-miterlimit="10"/>
<path d="M232.158 42L238.922 64.8819" stroke="#1475A4" stroke-width="2" stroke-miterlimit="10"/>
<path d="M285.789 68.8154L274.168 81.4676C273.931 81.7282 273.642 81.9363 273.32 82.0788C272.998 82.2213 272.649 82.295 272.297 82.2951H249.679C249.481 82.2955 249.283 82.2713 249.091 82.2231L237.099 79.3929C236.622 79.2813 236.123 79.3089 235.662 79.4727C235.201 79.6364 234.796 79.9292 234.496 80.3163L228.38 88.1715C228.043 88.6107 227.571 88.9268 227.037 89.0709L216.244 91.9851C215.711 92.1309 215.24 92.4462 214.903 92.8833C214.565 93.3203 214.379 93.8554 214.373 94.4076V98.8569C214.373 99.2441 214.46 99.6263 214.629 99.9751C214.797 100.324 215.041 100.63 215.344 100.872V100.872C215.72 101.168 216.004 101.564 216.166 102.014C216.327 102.464 216.359 102.95 216.258 103.417C216.157 103.885 215.926 104.314 215.593 104.657C215.26 105 214.837 105.242 214.373 105.357L203.579 107.995C203.026 108.134 202.534 108.453 202.182 108.903C201.83 109.353 201.638 109.907 201.637 110.478V124.353C201.638 124.727 201.721 125.095 201.88 125.433C202.038 125.771 202.27 126.07 202.557 126.309C202.844 126.548 203.179 126.721 203.541 126.816C203.902 126.911 204.279 126.926 204.647 126.86L216.891 124.641C217.416 124.548 217.899 124.292 218.27 123.909L230.167 111.689C230.473 111.375 230.854 111.145 231.274 111.022C231.694 110.898 232.139 110.884 232.566 110.981L237.363 112.061C237.896 112.188 238.375 112.482 238.729 112.901C239.082 113.319 239.293 113.84 239.329 114.387L239.629 118.369C239.66 118.778 239.79 119.174 240.006 119.522C240.223 119.871 240.52 120.163 240.873 120.372C241.226 120.581 241.624 120.703 242.034 120.726C242.444 120.748 242.853 120.672 243.227 120.503L249.523 117.709C249.908 117.534 250.33 117.457 250.752 117.486C251.174 117.514 251.582 117.648 251.939 117.874C252.296 118.1 252.591 118.412 252.798 118.781C253.004 119.15 253.115 119.565 253.121 119.988C253.205 124.485 253.289 131.441 253.049 132.172C252.809 132.904 245.35 138.996 242.136 141.562C241.71 141.902 241.188 142.096 240.644 142.118C240.101 142.139 239.564 141.987 239.113 141.682L228.092 134.235C227.806 134.044 227.485 133.911 227.148 133.845C226.81 133.779 226.462 133.781 226.126 133.851L208.257 137.689C207.814 137.782 207.405 137.991 207.07 138.295C206.735 138.598 206.486 138.985 206.35 139.416L200.353 158.604C200.208 159.075 200.202 159.578 200.336 160.053C200.47 160.527 200.738 160.953 201.109 161.278L211.519 170.477C211.987 170.885 212.588 171.111 213.21 171.112H223.367C223.722 171.112 224.072 171.186 224.397 171.33C224.721 171.473 225.012 171.682 225.251 171.943C225.49 172.205 225.672 172.514 225.786 172.85C225.899 173.186 225.941 173.541 225.91 173.894L230.155 190.276C230.106 190.836 230.241 191.396 230.539 191.871L237.339 202.665C237.568 203.031 237.886 203.333 238.263 203.543C238.641 203.752 239.065 203.863 239.497 203.864H250.063C250.518 203.863 250.966 203.74 251.358 203.508C251.75 203.276 252.073 202.944 252.293 202.545L271.05 168.726C271.313 168.249 271.417 167.701 271.346 167.161C271.275 166.622 271.032 166.119 270.654 165.728L264.742 159.539C264.455 159.247 264.245 158.889 264.13 158.496L261.144 148.374C261.033 147.984 261.012 147.574 261.084 147.175L262.091 141.371C262.192 140.799 262.484 140.278 262.92 139.894C263.356 139.51 263.91 139.287 264.49 139.26L277.382 138.444C277.719 138.426 278.049 138.341 278.353 138.194C278.657 138.046 278.929 137.84 279.152 137.586C279.376 137.333 279.546 137.038 279.654 136.717C279.762 136.397 279.805 136.059 279.78 135.722L279.373 129.978C279.333 129.435 279.47 128.893 279.761 128.434C280.052 127.974 280.484 127.62 280.992 127.423L284.134 126.224C284.622 126.037 285.156 126.003 285.664 126.127C286.172 126.251 286.629 126.528 286.976 126.92L294.915 135.974C295.143 136.233 295.318 136.535 295.431 136.861" stroke="#1475A4" stroke-width="2" stroke-miterlimit="10"/>
<path d="M317.161 203.972C307.467 213.333 295.622 220.17 282.667 223.884C269.712 227.597 256.044 228.072 242.863 225.268C229.681 222.464 217.39 216.465 207.069 207.8C196.747 199.135 188.712 188.068 183.667 175.571C178.623 163.075 176.725 149.53 178.139 136.128C179.553 122.726 184.236 109.876 191.777 98.7075C199.319 87.5386 209.487 78.3924 221.389 72.0721C233.292 65.7518 246.564 62.4509 260.041 62.4592" stroke="#1475A4" stroke-width="2" stroke-miterlimit="10"/>
<path d="M287.192 66.7766L274.168 81.4316C273.931 81.6921 273.642 81.9003 273.32 82.0428C272.998 82.1853 272.649 82.2589 272.297 82.259H249.679C249.481 82.2594 249.283 82.2353 249.091 82.1871L237.099 79.3568C236.622 79.2452 236.123 79.2729 235.662 79.4366C235.201 79.6003 234.796 79.8932 234.496 80.2803L228.38 88.1354C228.043 88.5747 227.571 88.8908 227.037 89.0349L216.244 91.9491C215.705 92.0965 215.23 92.4172 214.892 92.8616C214.554 93.3059 214.371 93.8492 214.373 94.4075V98.8568C214.373 99.244 214.46 99.6262 214.629 99.975C214.797 100.324 215.041 100.63 215.344 100.872V100.872C215.72 101.168 216.004 101.563 216.166 102.014C216.327 102.464 216.359 102.95 216.258 103.417C216.157 103.885 215.926 104.314 215.593 104.657C215.26 105 214.837 105.242 214.373 105.357L203.579 107.995C203.026 108.134 202.534 108.453 202.182 108.903C201.83 109.353 201.638 109.907 201.637 110.478V124.353C201.638 124.726 201.721 125.095 201.88 125.433C202.038 125.771 202.27 126.07 202.557 126.309C202.844 126.548 203.179 126.721 203.541 126.816C203.902 126.911 204.279 126.926 204.647 126.859L216.891 124.641C217.416 124.548 217.899 124.292 218.27 123.909L230.167 111.689C230.473 111.375 230.854 111.145 231.274 111.022C231.694 110.898 232.139 110.884 232.566 110.981L237.363 112.061C237.896 112.188 238.375 112.482 238.729 112.901C239.082 113.319 239.293 113.84 239.329 114.387L239.629 118.369C239.66 118.778 239.79 119.174 240.006 119.522C240.223 119.871 240.52 120.162 240.873 120.372C241.226 120.581 241.624 120.703 242.034 120.726C242.444 120.748 242.853 120.672 243.227 120.503L249.523 117.709C249.908 117.534 250.33 117.457 250.752 117.486C251.174 117.514 251.582 117.648 251.939 117.874C252.296 118.1 252.591 118.412 252.798 118.781C253.004 119.15 253.115 119.565 253.121 119.988C253.205 124.485 253.289 131.441 253.049 132.172C252.809 132.904 245.35 138.996 242.136 141.562C241.71 141.902 241.188 142.096 240.644 142.118C240.101 142.139 239.564 141.987 239.113 141.682L228.092 134.235C227.806 134.044 227.485 133.911 227.148 133.845C226.81 133.779 226.462 133.781 226.126 133.851L208.257 137.689C207.814 137.782 207.405 137.991 207.07 138.295C206.735 138.598 206.486 138.985 206.35 139.416L200.353 158.604C200.208 159.075 200.202 159.578 200.336 160.053C200.47 160.527 200.738 160.953 201.109 161.278L211.519 170.477C211.987 170.885 212.588 171.111 213.21 171.112H223.367C223.722 171.112 224.072 171.186 224.397 171.33C224.721 171.473 225.012 171.682 225.251 171.943C225.49 172.205 225.672 172.514 225.786 172.85C225.899 173.186 225.941 173.541 225.91 173.894L230.155 190.276C230.106 190.836 230.241 191.396 230.539 191.871L237.339 202.665C237.568 203.031 237.886 203.333 238.263 203.542C238.641 203.752 239.065 203.863 239.497 203.864H250.063C250.518 203.863 250.966 203.74 251.358 203.508C251.75 203.276 252.073 202.944 252.293 202.545L271.05 168.726C271.313 168.249 271.417 167.701 271.346 167.161C271.275 166.622 271.032 166.119 270.654 165.727L264.742 159.539C264.455 159.247 264.245 158.889 264.13 158.496L261.144 148.374C261.033 147.984 261.012 147.574 261.084 147.175L262.091 141.371C262.192 140.798 262.484 140.278 262.92 139.894C263.356 139.51 263.91 139.287 264.49 139.26L277.382 138.444C277.719 138.426 278.049 138.341 278.353 138.194C278.657 138.046 278.929 137.84 279.152 137.586C279.376 137.333 279.546 137.037 279.654 136.717C279.762 136.397 279.805 136.059 279.78 135.722L279.373 129.978C279.333 129.435 279.47 128.893 279.761 128.433C280.052 127.974 280.484 127.619 280.992 127.423L284.134 126.224C284.622 126.036 285.156 126.003 285.664 126.127C286.172 126.251 286.629 126.528 286.976 126.919L294.915 135.974C295.143 136.233 295.318 136.535 295.431 136.861L302.147 147.655" stroke="#1475A4" stroke-width="2" stroke-miterlimit="10"/>
<path d="M260.041 227.022C244.452 227.02 229.185 222.593 216.015 214.254C202.844 205.915 192.312 194.009 185.644 179.919C178.975 165.829 176.445 150.135 178.346 134.664C180.248 119.192 186.503 104.578 196.385 92.5221C206.266 80.4663 219.368 71.464 234.166 66.5626C248.963 61.6612 264.848 61.0621 279.973 64.8351C295.097 68.6081 308.84 76.598 319.602 87.8754C330.363 99.1528 337.701 113.254 340.763 128.539" stroke="#1475A4" stroke-width="2" stroke-miterlimit="10"/>
<path d="M288.967 237.575C276.637 241.235 263.704 242.414 250.916 241.043C238.128 239.672 225.738 235.779 214.464 229.59C203.19 223.4 193.256 215.036 185.235 204.982C177.214 194.928 171.267 183.383 167.737 171.016C164.206 158.649 163.163 145.704 164.668 132.931C166.173 120.158 170.195 107.81 176.503 96.6016C182.811 85.3932 191.278 75.5468 201.416 67.6319C211.554 59.7171 223.16 53.891 235.564 50.4907" stroke="#1475A4" stroke-width="2" stroke-miterlimit="10"/>
<path d="M255.963 241.856V271.022" stroke="#1475A4" stroke-width="2" stroke-miterlimit="10"/>
<path d="M211.075 280.545H300.851L296.774 271.022H217.875" stroke="#1475A4" stroke-width="2" stroke-miterlimit="10"/>
<path d="M300.851 280.545H211.075L215.152 271.022H294.052" stroke="#1475A4" stroke-width="2" stroke-miterlimit="10"/>
<path d="M360.203 192.951L370.061 202.809" stroke="#1475A4" stroke-width="2" stroke-miterlimit="10"/>
<path d="M373.568 199.301L366.555 206.314L405.987 245.746L413 238.733L373.568 199.301Z" stroke="#1475A4" stroke-width="2" stroke-miterlimit="10"/>
<path d="M336.158 202.905C354.941 202.905 370.169 187.677 370.169 168.894C370.169 150.11 354.941 134.883 336.158 134.883C317.374 134.883 302.147 150.11 302.147 168.894C302.147 187.677 317.374 202.905 336.158 202.905Z" stroke="#1475A4" stroke-width="2" stroke-miterlimit="10"/>
<path d="M336.158 194.905C350.524 194.905 362.17 183.26 362.17 168.894C362.17 154.528 350.524 142.882 336.158 142.882C321.792 142.882 310.146 154.528 310.146 168.894C310.146 183.26 321.792 194.905 336.158 194.905Z" stroke="#1475A4" stroke-width="2" stroke-miterlimit="10"/>
<path d="M275.811 182.937L270.33 190.132C269.97 190.608 269.792 191.197 269.827 191.793C269.862 192.389 270.108 192.952 270.522 193.382L274.827 197.892C275.092 198.167 275.415 198.378 275.773 198.509C276.131 198.64 276.515 198.688 276.894 198.649C277.273 198.609 277.639 198.484 277.962 198.282C278.286 198.08 278.559 197.807 278.761 197.484L284.673 188.034C284.86 187.734 284.981 187.398 285.03 187.048C285.078 186.698 285.052 186.342 284.954 186.002C284.855 185.663 284.686 185.348 284.458 185.078C284.23 184.808 283.948 184.59 283.63 184.436L278.905 182.169C278.379 181.923 277.785 181.865 277.222 182.005C276.659 182.144 276.16 182.473 275.811 182.937V182.937Z" stroke="#1475A4" stroke-width="2" stroke-linecap="round" stroke-linejoin="round"/>
<path d="M318 177.937H352" stroke="#1475A4" stroke-width="2" stroke-miterlimit="10"/>
<path d="M327.791 169.167H321.31V177.627H327.791V169.167Z" stroke="#1475A4" stroke-width="2" stroke-miterlimit="10"/>
<path d="M338.24 162.584H331.76V177.627H338.24V162.584Z" stroke="#1475A4" stroke-width="2" stroke-miterlimit="10"/>
<path d="M348.67 156.063H342.189V177.627H348.67V156.063Z" stroke="#1475A4" stroke-width="2" stroke-miterlimit="10"/>
</svg>
