<svg width="576" height="324" viewBox="0 0 576 324" fill="none" xmlns="http://www.w3.org/2000/svg">
<path d="M199.943 193.813H170.302V280.39H199.943V193.813Z" stroke="#1475A4" stroke-width="3" stroke-miterlimit="10"/>
<path d="M240.687 147.3H211.047V280.39H240.687V147.3Z" stroke="#1475A4" stroke-width="3" stroke-miterlimit="10"/>
<path d="M281.431 185.396H251.791V280.39H281.431V185.396Z" stroke="#1475A4" stroke-width="3" stroke-miterlimit="10"/>
<path d="M322.175 168.751H292.535V280.39H322.175V168.751Z" stroke="#1475A4" stroke-width="3" stroke-miterlimit="10"/>
<path d="M362.92 185.396H333.279V280.39H362.92V185.396Z" stroke="#1475A4" stroke-width="3" stroke-miterlimit="10"/>
<path d="M405.139 157.704H375.896V280.39H405.139V157.704Z" stroke="#1475A4" stroke-width="3" stroke-miterlimit="10"/>
<path d="M159.861 142.855H178.909L227.125 43L269.817 124.375L310.561 72.0921L348.6 106.689L418.058 78.0883" stroke="#1475A4" stroke-width="3" stroke-miterlimit="10"/>
<path d="M404.439 72.3569L418.058 78.0883L412.27 91.84" stroke="#1475A4" stroke-width="3" stroke-miterlimit="10"/>
<path d="M128.836 280.39H445" stroke="#1475A4" stroke-width="3" stroke-miterlimit="10"/>
</svg>
