<svg width="576" height="324" viewBox="0 0 576 324" fill="none" xmlns="http://www.w3.org/2000/svg">
<path d="M277.303 151.296H334.741" stroke="#1475A4" stroke-width="3" stroke-miterlimit="10"/>
<path d="M277.303 159.855H334.741" stroke="#1475A4" stroke-width="3" stroke-miterlimit="10"/>
<path d="M277.303 182.1H334.741" stroke="#1475A4" stroke-width="3" stroke-miterlimit="10"/>
<path d="M277.303 190.678H334.741" stroke="#1475A4" stroke-width="3" stroke-miterlimit="10"/>
<path d="M266.533 177.411H248.602V195.385H266.533V177.411Z" stroke="#1475A4" stroke-width="3" stroke-miterlimit="10"/>
<path d="M277.303 212.904H334.741" stroke="#1475A4" stroke-width="3" stroke-miterlimit="10"/>
<path d="M277.303 221.482H334.741" stroke="#1475A4" stroke-width="3" stroke-miterlimit="10"/>
<path d="M266.533 208.215H248.602V226.189H266.533V208.215Z" stroke="#1475A4" stroke-width="3" stroke-miterlimit="10"/>
<path d="M341.903 266.152H372V79.5287L335.575 43H218.795V266.152H341.903Z" stroke="#1475A4" stroke-width="3" stroke-miterlimit="10"/>
<path d="M345.855 273.658V281H204V55.9939H211.307" stroke="#1475A4" stroke-width="3" stroke-miterlimit="10"/>
<path d="M372 79.5287H335.575V43" stroke="#1475A4" stroke-width="3" stroke-miterlimit="10"/>
<path d="M260.622 146.861H248.692V164.835H266.624V156.257" stroke="#1475A4" stroke-width="3" stroke-miterlimit="10"/>
<path d="M253.533 153.131L257.975 158.184L273.677 139.374" stroke="#1475A4" stroke-width="3" stroke-miterlimit="10"/>
<path d="M258.646 109.66C261.928 109.66 264.466 108.116 264.466 104.971C264.466 101.464 261.203 100.464 256.833 98.8288C253.026 97.4477 249.019 95.6303 249.019 90.9052C249.003 89.396 249.503 87.9269 250.437 86.7429C251.371 85.5589 252.681 84.7316 254.15 84.3991C253.243 83.8136 252.5 83.0054 251.992 82.0511C251.484 81.0969 251.229 80.0283 251.249 78.9471C251.249 74.4945 254.875 71.8594 259.462 71.8594C261.675 71.8559 263.85 72.4323 265.772 73.5314V76.221C263.918 74.9788 261.746 74.2974 259.517 74.2583C256.325 74.2583 253.878 75.8576 253.878 78.8562C253.878 82.4909 257.286 83.4177 261.42 84.9625C265.554 86.5072 269.325 88.161 269.325 93.0315C269.359 94.5212 268.875 95.9762 267.955 97.1468C267.035 98.3174 265.738 99.1306 264.285 99.4467V99.4467C265.174 100.047 265.899 100.86 266.396 101.812C266.893 102.764 267.146 103.825 267.131 104.899C267.131 109.46 263.505 112.005 258.737 112.005C256.345 112.004 253.996 111.377 251.92 110.187V107.516C253.91 108.862 256.245 109.606 258.646 109.66ZM256.561 85.6712C253.751 86.3073 251.611 87.7612 251.611 90.669C251.611 94.1401 254.657 95.3577 258.61 96.8298C259.698 97.2296 260.786 97.6476 261.837 98.1383C264.738 97.5022 266.642 95.9574 266.642 93.1406C266.642 89.6331 263.705 88.3609 259.607 86.8525C258.61 86.5436 257.558 86.1256 256.561 85.6712V85.6712Z" fill="#1475A4" stroke="#1475A4" stroke-width="0.85" stroke-miterlimit="10"/>
</svg>
