<svg width="576" height="324" viewBox="0 0 576 324" fill="none" xmlns="http://www.w3.org/2000/svg">
<path d="M273.773 127.981H255.577V154.501H273.773V127.981Z" stroke="#1475A4" stroke-width="3" stroke-miterlimit="10"/>
<path d="M298.859 102.549H280.664V154.501H298.859V102.549Z" stroke="#1475A4" stroke-width="3" stroke-miterlimit="10"/>
<path d="M323.944 83.4198H305.749V154.609H323.944V83.4198Z" stroke="#1475A4" stroke-width="3" stroke-miterlimit="10"/>
<path d="M244.166 154.501H335.358" stroke="#1475A4" stroke-width="3" stroke-miterlimit="10"/>
<path d="M263.437 199.931C261.93 194.931 258.808 190.802 254.609 187.867L210.789 164.282L208.097 170.912C208.097 170.912 222.094 189.389 229.953 195.91L236.736 201.453L230.815 209.061L223.494 203.518C205.944 190.15 194.639 168.521 194.639 168.521L199.269 156.566L173.968 124.286L162.662 129.394L183.765 209.061C185.595 215.582 189.687 221.125 195.5 224.821L228.231 245.036H277.326L263.437 199.931Z" stroke="#1475A4" stroke-width="3" stroke-miterlimit="10" stroke-linecap="round" stroke-linejoin="round"/>
<path d="M231.462 275.686C231.462 278.076 233.293 279.924 235.661 279.924H274.313C276.681 279.924 278.512 278.076 278.512 275.686V254.709H231.462V275.686Z" stroke="#1475A4" stroke-width="3" stroke-miterlimit="10"/>
<path d="M297.676 245.036H346.77L379.501 224.821C385.207 221.125 389.406 215.691 391.236 209.061L412.338 129.394L401.034 124.286L375.625 156.674L380.254 168.63C380.254 168.63 369.057 190.258 351.4 203.626L344.079 209.17L338.158 201.561L344.94 196.019C352.692 189.497 366.796 171.021 366.796 171.021L364.105 164.391L320.285 187.976C316.086 190.91 312.964 195.04 311.456 200.04L297.676 245.036Z" stroke="#1475A4" stroke-width="3" stroke-miterlimit="10" stroke-linecap="round" stroke-linejoin="round"/>
<path d="M343.325 254.709H296.383V275.686C296.383 278.076 298.213 279.924 300.582 279.924H339.233C341.602 279.924 343.433 278.076 343.433 275.686V254.709H343.325Z" stroke="#1475A4" stroke-width="3" stroke-miterlimit="10"/>
<path d="M255.147 118.743L272.589 82.0071H294.445L311.887 45.2713" stroke="#1475A4" stroke-width="3" stroke-miterlimit="10"/>
<path d="M296.383 49.7275L312.425 44.0758L318.131 60.3787" stroke="#1475A4" stroke-width="3" stroke-miterlimit="10"/>
</svg>
