<svg version="1.1" xmlns="http://www.w3.org/2000/svg" xmlns:xlink="http://www.w3.org/1999/xlink" x="0px" y="0px"
	 viewBox="0 0 30 30" style="enable-background:new 0 0 30 30;" xml:space="preserve">
<style type="text/css">
	.st0{fill:none;stroke:#005B86;stroke-miterlimit:10;}
	.st1{fill:#FFFFFF;}
	.st2{fill:#F5F5F5;}
	.st3{clip-path:url(#SVGID_2_);}
	.st4{clip-path:url(#SVGID_4_);fill:#F2F2F2;}
	.st5{clip-path:url(#SVGID_6_);}
	.st6{clip-path:url(#SVGID_8_);fill:#F2F2F2;}
	.st7{clip-path:url(#SVGID_10_);}
	.st8{clip-path:url(#SVGID_12_);fill:#F2F2F2;}
	.st9{clip-path:url(#SVGID_14_);}
	.st10{clip-path:url(#SVGID_16_);fill:#F2F2F2;}
	.st11{clip-path:url(#SVGID_18_);}
	.st12{clip-path:url(#SVGID_20_);fill:#F2F2F2;}
	.st13{clip-path:url(#SVGID_22_);}
	.st14{clip-path:url(#SVGID_24_);fill:#F2F2F2;}
	.st15{display:none;}
	.st16{display:inline;}
	.st17{fill:#FFFFFF;stroke:#005987;stroke-width:2;stroke-miterlimit:10;}
	.st18{fill:none;stroke:#005987;stroke-width:2;stroke-miterlimit:10;}
	.st19{fill:none;stroke:#005B86;stroke-width:2;stroke-miterlimit:10;}
	.st20{fill:#FFFFFF;stroke:#005B86;stroke-width:2;stroke-miterlimit:10;}
	.st21{fill:#005B86;}
	.st22{display:inline;fill:none;stroke:#005987;stroke-width:2;stroke-miterlimit:10;}
	.st23{display:inline;opacity:0.2;fill:none;stroke:#005987;stroke-width:0;stroke-miterlimit:10;}
	.st24{display:inline;fill:none;stroke:#1475A4;stroke-width:2;stroke-miterlimit:10;}
	.st25{fill:none;stroke:#1475A4;stroke-width:2;stroke-miterlimit:10;}
	.st26{fill:#1475A4;}
	.st27{display:inline;fill:none;stroke:#005B86;stroke-width:2;stroke-miterlimit:10;}
	.st28{fill:#FFFFFF;stroke:#1475A4;stroke-width:2;stroke-miterlimit:10;}
	.st29{display:inline;fill:#FFFFFF;stroke:#005987;stroke-width:2;stroke-miterlimit:10;}
	.st30{display:inline;fill:#FFFFFF;stroke:#005B86;stroke-width:2;stroke-miterlimit:10;}
	.st31{fill:none;stroke:#005B86;stroke-width:2;stroke-linecap:round;stroke-linejoin:round;stroke-miterlimit:10;}
	.st32{display:inline;fill:none;stroke:#005987;stroke-width:2;stroke-linecap:round;stroke-linejoin:round;stroke-miterlimit:10;}
	.st33{fill:#4991B8;stroke:#005987;stroke-width:2;stroke-miterlimit:10;}
	.st34{opacity:0.2;fill:#4991B8;stroke:#005987;stroke-width:0;stroke-miterlimit:10;}
	.st35{fill:#DCE9F1;stroke:#005987;stroke-width:2;stroke-miterlimit:10;}
	.st36{fill:#FFFFFF;stroke:#005987;stroke-width:2;stroke-linecap:round;stroke-miterlimit:10;}
	.st37{fill:#DCE9F1;stroke:#1475A4;stroke-width:2;stroke-miterlimit:10;}
	.st38{display:inline;fill:#FFFFFF;}
	.st39{display:inline;fill:#FFFFFF;stroke:#1475A4;stroke-width:2;stroke-miterlimit:10;}
	.st40{display:inline;fill:none;stroke:#1475A4;stroke-width:2;stroke-linecap:round;stroke-linejoin:round;stroke-miterlimit:10;}
	.st41{opacity:0.2;fill:none;stroke:#1475A4;stroke-width:2;stroke-miterlimit:10;}
	.st42{clip-path:url(#SVGID_26_);fill:none;stroke:#1475A4;stroke-width:2;stroke-miterlimit:10;}
	.st43{fill:#F2F2F2;}
	.st44{fill:none;stroke:#1475A4;stroke-width:2;stroke-linecap:round;stroke-linejoin:round;stroke-miterlimit:10;}
	.st45{fill:#1475A4;stroke:#1475A4;stroke-width:0.25;stroke-miterlimit:10;}
	.st46{fill:#DCE9F1;}
	.st47{fill:none;stroke:#1475A4;stroke-width:1.8;stroke-miterlimit:5;}
	.st48{fill:none;stroke:#1475A4;stroke-width:1.8;stroke-linecap:round;stroke-miterlimit:10;}
	.st49{fill:none;stroke:#1475A4;stroke-width:1.8;stroke-miterlimit:10;}
</style>
<g id="Underlag">
</g>
<g id="Alternativer" class="st15">
	<path class="st24" d="M-17-126.6l-12.7,13.8c-0.5,0.6-1.3,0.9-2,0.9h-24.6c-0.2,0-0.4,0-0.6-0.1l-13-3.1c-1.1-0.3-2.2,0.1-2.8,1
		l-6.7,8.6c-0.4,0.5-0.9,0.8-1.5,1l-11.7,3.2c-1.2,0.3-2.1,1.4-2.1,2.7v4.9c0,0.9,0.4,1.7,1.1,2.2l0,0c1.8,1.4,1.2,4.3-1.1,4.9
		l-11.8,2.9c-1.2,0.3-2.1,1.4-2.1,2.7V-66c0,1.7,1.6,3,3.3,2.7l13.3-2.4c0.6-0.1,1.1-0.4,1.5-0.8l13-13.3c0.7-0.7,1.7-1,2.6-0.8
		l5.2,1.2c1.2,0.3,2.1,1.3,2.2,2.5l0.3,4.3c0.1,1.9,2.1,3.1,3.9,2.3l6.9-3c1.8-0.8,3.9,0.5,3.9,2.5c0.1,4.9,0.2,12.5-0.1,13.3
		c-0.3,0.9-8.4,7.4-11.9,10.2c-1,0.8-2.3,0.8-3.3,0.1l-12-8.1c-0.6-0.4-1.4-0.6-2.1-0.4l-19.5,4.2c-1,0.2-1.8,0.9-2.1,1.9l-6.5,20.9
		c-0.3,1,0,2.2,0.8,2.9l11.4,10c0.5,0.4,1.2,0.7,1.8,0.7H-85c1.6,0,2.9,1.4,2.8,3l4.6,17.9c-0.1,0.6,0.1,1.2,0.4,1.7l7.4,11.8
		c0.5,0.8,1.4,1.3,2.4,1.3h11.5c1,0,1.9-0.5,2.4-1.4L-33-17.6c0.6-1.1,0.4-2.4-0.4-3.3l-6.5-6.8c-0.3-0.3-0.5-0.7-0.7-1.1l-3.2-11
		c-0.1-0.4-0.1-0.8-0.1-1.3l1.1-6.3c0.2-1.3,1.3-2.2,2.6-2.3l14.1-0.9c1.5-0.1,2.7-1.4,2.6-3l-0.4-6.3c-0.1-1.2,0.6-2.3,1.8-2.8
		l3.4-1.3c1.1-0.4,2.3-0.1,3.1,0.8l8.7,9.8c0.2,0.3,0.4,0.6,0.6,1l3.6,11.1c0.3,1,1.3,1.8,2.3,1.9L3-39.1c1.1,0.1,2.2-0.4,2.7-1.4
		l4.5-7.9c1.1-1.9,3.9-1.9,4.9,0.1l6.5,13.1c0.2,0.4,0.5,0.8,0.9,1l17.7,12.7"/>
	<circle class="st24" cx="-45" cy="-43.8" r="89.7"/>
	<path class="st24" d="M-17-126.6l-12.7,13.8c-0.5,0.6-1.3,0.9-2,0.9h-24.6c-0.2,0-0.4,0-0.6-0.1l-13-3.1c-1.1-0.3-2.2,0.1-2.8,1
		l-6.7,8.6c-0.4,0.5-0.9,0.8-1.5,1l-11.7,3.2c-1.2,0.3-2.1,1.4-2.1,2.7v4.9c0,0.9,0.4,1.7,1.1,2.2l0,0c1.8,1.4,1.2,4.3-1.1,4.9
		l-11.8,2.9c-1.2,0.3-2.1,1.4-2.1,2.7V-66c0,1.7,1.6,3,3.3,2.7l13.3-2.4c0.6-0.1,1.1-0.4,1.5-0.8l13-13.3c0.7-0.7,1.7-1,2.6-0.8
		l5.2,1.2c1.2,0.3,2.1,1.3,2.2,2.5l0.3,4.3c0.1,1.9,2.1,3.1,3.9,2.3l6.9-3c1.8-0.8,3.9,0.5,3.9,2.5c0.1,4.9,0.2,12.5-0.1,13.3
		c-0.3,0.9-8.4,7.4-11.9,10.2c-1,0.8-2.3,0.8-3.3,0.1l-12-8.1c-0.6-0.4-1.4-0.6-2.1-0.4l-19.5,4.2c-1,0.2-1.8,0.9-2.1,1.9l-6.5,20.9
		c-0.3,1,0,2.2,0.8,2.9l11.4,10c0.5,0.4,1.2,0.7,1.8,0.7H-85c1.6,0,2.9,1.4,2.8,3l4.6,17.9c-0.1,0.6,0.1,1.2,0.4,1.7l7.4,11.8
		c0.5,0.8,1.4,1.3,2.4,1.3h11.5c1,0,1.9-0.5,2.4-1.4L-33-17.6c0.6-1.1,0.4-2.4-0.4-3.3l-6.5-6.8c-0.3-0.3-0.5-0.7-0.7-1.1l-3.2-11
		c-0.1-0.4-0.1-0.8-0.1-1.3l1.1-6.3c0.2-1.3,1.3-2.2,2.6-2.3l14.1-0.9c1.5-0.1,2.7-1.4,2.6-3l-0.4-6.3c-0.1-1.2,0.6-2.3,1.8-2.8
		l3.4-1.3c1.1-0.4,2.3-0.1,3.1,0.8l8.7,9.8c0.2,0.3,0.4,0.6,0.6,1l3.6,11.1c0.3,1,1.3,1.8,2.3,1.9L3-39.1c1.1,0.1,2.2-0.4,2.7-1.4
		l4.5-7.9c1.1-1.9,3.9-1.9,4.9,0.1l6.5,13.1c0.2,0.4,0.5,0.8,0.9,1l17.7,12.7"/>
	<circle class="st24" cx="-45" cy="-43.8" r="89.7"/>
	<circle class="st38" cx="31.5" cy="-20" r="43.1"/>
	<circle class="st24" cx="31.5" cy="-20" r="37.1"/>
	<circle class="st24" cx="31.5" cy="-20" r="28.4"/>
</g>
<g id="Artwork">
	<path class="st26" d="M7.2,26.9V26H2.6V10.4h3.6l0,16.5H7.2V26V26.9h0.9V8.6H0.8v19.2h7.2v-0.9H7.2z M4.5,7.1V6.2
		c-1.2,0-2.2-1-2.2-2.2c0-1.2,1-2.2,2.2-2.2c1.2,0,2.2,1,2.2,2.2c0,1.2-1,2.2-2.2,2.2V7.1V8c2.2,0,4-1.8,4-4c0-2.2-1.8-4-4-4
		c-2.2,0-4,1.8-4,4c0,2.2,1.8,4,4,4V7.1z M28.4,26.9V26h-4.5v-7.5c0-1,0-2.2-0.4-3.4c-0.2-0.6-0.6-1.1-1.2-1.5
		c-0.6-0.4-1.3-0.6-2.1-0.6c-0.8,0-1.5,0.2-2.1,0.5c-0.9,0.5-1.4,1.3-1.7,2.2c-0.3,0.9-0.3,1.8-0.3,2.7V26h-3.6V10.4h3.4l0,2.4h1
		h0.5l0.3-0.5c0.3-0.5,0.8-1.1,1.5-1.6c0.7-0.4,1.6-0.8,2.8-0.8c1.3,0,2.2,0.2,2.9,0.5c1.1,0.5,1.7,1.3,2.1,2.5
		c0.4,1.2,0.6,2.7,0.6,4.4v9.5H28.4V26V26.9h0.9v-9.5c0-2.4-0.2-4.6-1.3-6.4c-0.5-0.9-1.3-1.6-2.3-2.1c-1-0.5-2.2-0.7-3.7-0.7
		c-1.5,0-2.7,0.4-3.7,1c-1,0.6-1.7,1.4-2.2,2.3l0.8,0.4V11h-0.1v0.9h0.9V8.6h-7v19.2h7.2v-9.5c0-1.1,0.1-2.1,0.5-2.6
		c0.2-0.3,0.4-0.5,0.6-0.6c0.3-0.2,0.7-0.3,1.3-0.3c0.6,0,0.9,0.1,1.1,0.3c0.2,0.1,0.3,0.3,0.4,0.5c0.2,0.3,0.3,0.8,0.3,1.3
		c0.1,0.5,0.1,1.1,0.1,1.7v9.3h7.2v-0.9H28.4z"/>
</g>
</svg>
