<?xml version="1.0" encoding="utf-8"?>
<!-- Generator: Adobe Illustrator 23.0.2, SVG Export Plug-In . SVG Version: 6.00 Build 0)  -->
<svg version="1.1" id="Norges_Bank_Investment_Management"
	 xmlns="http://www.w3.org/2000/svg" xmlns:xlink="http://www.w3.org/1999/xlink" x="0px" y="0px" viewBox="0 0 390.05 77.82"
	 style="enable-background:new 0 0 390.05 77.82;" xml:space="preserve">
<style type="text/css">
	.st0{fill:url(#SVGID_1_);}
	.st1{fill:url(#SVGID_2_);}
</style>
<g>
	<g>
		<g>
			<g>
				<path d="M104.36,14.3l15.42,19.26V14.3h3.09v25.16h-2.15l-15.45-19.19v19.19h-3.09V14.3H104.36z"/>
				<path d="M154.88,26.95c-0.04,6.58-4.13,13.01-12.76,13.01c-8.62,0-12.79-6.4-12.79-13.01c0-7.3,4.89-13.08,12.83-13.08
					C150.67,13.91,154.91,20.3,154.88,26.95z M142.16,16.75c-6.4,0-9.7,4.71-9.7,10.21c0,5.1,3.09,10.06,9.7,10.06
					c6.61,0,9.59-5.1,9.59-10.06C151.79,21.85,148.73,16.82,142.16,16.75z"/>
				<path d="M171.06,30.4h-6.59v9.05h-3.13V14.3h11.43c5.68,0,8.52,3.95,8.52,8.05c0.04,3.81-2.15,7.3-6.54,7.72l7.61,9.39h-3.95
					L171.06,30.4z M178.15,22.42c0.04-2.51-1.76-5.32-5.39-5.32h-8.3v10.5h8.16C176.39,27.6,178.15,25.26,178.15,22.42z"/>
				<path d="M207.7,19.65c-1.97-1.9-4.89-2.94-7.44-2.94c-6.47,0-9.99,4.85-9.99,10.38c0,5.1,3.24,9.88,10.06,9.88
					c2.37,0,4.78-0.75,6.86-2.55v-5.97h-7.84v-2.77h10.68v9.96c-2.55,2.73-5.68,4.28-9.74,4.28c-8.95,0-13.12-6.08-13.12-12.83
					c-0.04-7.51,4.89-13.3,13.08-13.3c3.34,0,6.68,1.26,9.24,3.78L207.7,19.65z"/>
				<path d="M217.91,14.3h17.68v2.87H221v7.87h13.98v2.91H221v8.52h15.17v2.98h-18.26V14.3z"/>
				<path d="M251.88,16.57c-3.2,0-6.61,1.26-6.61,4.31c0,2.73,3.13,3.52,6.83,4.13c5.03,0.79,9.99,1.8,9.99,7.47
					c-0.04,5.64-5.43,7.48-10.24,7.48c-4.45,0-8.7-1.62-10.63-5.82l2.58-1.51c1.62,2.98,5,4.42,8.09,4.42
					c3.05,0,7.11-0.97,7.11-4.67c0.04-3.13-3.49-4.02-7.26-4.6c-4.85-0.76-9.56-1.87-9.56-6.97c-0.07-5.25,5.28-7.05,9.63-7.05
					c3.74,0,7.29,0.76,9.53,4.56l-2.38,1.48C257.59,17.61,254.68,16.6,251.88,16.57z"/>
				<path d="M293.92,14.3c4.56,0,8.45,2.27,8.45,7.04c0,2.3-1.33,4.24-3.74,5.18c3.05,0.86,4.53,3.66,4.53,6
					c0,5.36-4.49,6.94-9.24,6.94h-11V14.3H293.92z M286.05,25.12h8.02c3.02,0,5.21-1.12,5.21-3.74c0-2.8-2.26-4.24-5.35-4.24h-7.87
					V25.12z M286.05,36.51h7.87c2.62,0,6.11-0.68,6.11-4.1c-0.04-3.16-3.24-4.46-5.97-4.46h-8.02V36.51z"/>
				<path d="M321.7,14.3l11.29,25.16h-3.38l-2.48-5.54h-14.38l-2.44,5.54h-3.42l11.29-25.16H321.7z M319.94,17.46l-5.97,13.58h11.93
					L319.94,17.46z"/>
				<path d="M340,14.3l15.42,19.26V14.3h3.09v25.16h-2.16L340.9,20.27v19.19h-3.09V14.3H340z"/>
				<path d="M366.41,14.3h3.09v11.11l11.14-11.11h3.92v0.18l-12.07,11.93l13.15,12.83v0.22h-3.88L369.5,27.63v11.82h-3.09V14.3z"/>
			</g>
			<g>
				<rect x="102.51" y="50.89" width="1.86" height="12.16"/>
				<polygon points="117.84,63.05 110.91,54.44 110.91,63.05 109.07,63.05 109.07,50.89 110.39,50.89 117.3,59.53 117.3,50.89 
					119.14,50.89 119.14,63.05 				"/>
				<polygon points="127.5,63.08 122.47,50.89 124.53,50.89 128.41,60.6 132.32,50.89 134.36,50.89 129.35,63.08 				"/>
				<polygon points="137.57,63.05 137.57,50.89 146.23,50.89 146.23,52.63 139.41,52.63 139.41,55.91 145.94,55.91 145.94,57.67 
					139.41,57.67 139.41,61.26 146.5,61.26 146.5,63.05 				"/>
				<path d="M154.85,63.28c-2.48,0-4.31-1.01-5.15-2.84l-0.08-0.16l1.54-0.9l0.1,0.18c0.65,1.19,2.06,1.96,3.61,1.96
					c0.73,0,3.13-0.14,3.13-1.99c0.01-1.21-1.28-1.66-3.23-1.96c-2.35-0.36-4.64-0.93-4.64-3.45c-0.01-0.86,0.27-1.6,0.85-2.18
					c1.17-1.19,3.09-1.32,3.86-1.32c1.54,0,3.46,0.25,4.62,2.23l0.1,0.16l-1.44,0.89l-0.11-0.17c-0.54-0.87-1.72-1.4-3.14-1.42
					c-1.44,0-2.9,0.56-2.9,1.82c0,1.04,1.11,1.42,3.03,1.74c2.15,0.34,4.84,0.76,4.84,3.69C159.82,62.31,157.25,63.28,154.85,63.28z
					"/>
				<polygon points="166.6,63.05 166.6,52.6 162.59,52.6 162.59,50.89 172.46,50.89 172.46,52.6 168.45,52.6 168.45,63.05 				"/>
				<polygon points="251.18,63.03 251.18,53.81 247.21,59.34 246.7,59.34 242.74,53.78 242.74,63.03 240.9,63.03 240.9,50.88 
					242.94,50.88 246.97,56.78 250.97,50.88 253.01,50.88 253.01,63.03 				"/>
				<path d="M267.32,63.03l-1.16-2.59h-6.46l-1.14,2.59h-2.03l5.45-12.15h1.9l5.45,12.15H267.32z M265.41,58.71l-2.49-5.66
					l-2.49,5.66H265.41z"/>
				<polygon points="282.05,63.03 275.12,54.43 275.12,63.03 273.28,63.03 273.28,50.88 274.6,50.88 281.51,59.52 281.51,50.88 
					283.35,50.88 283.35,63.03 				"/>
				<path d="M297.7,63.03l-1.16-2.59h-6.46l-1.14,2.59h-2.03l5.45-12.15h1.9l5.46,12.15H297.7z M295.8,58.71l-2.49-5.66l-2.48,5.66
					H295.8z"/>
				<path d="M308.75,63.25c-4.67,0-6.33-3.34-6.33-6.19c-0.01-1.85,0.62-3.51,1.77-4.67c1.14-1.14,2.71-1.75,4.54-1.75
					c1.68,0,3.27,0.65,4.46,1.82l0.13,0.13l-1.1,1.27l-0.15-0.14c-0.85-0.82-2.13-1.32-3.34-1.32c-3.07,0-4.47,2.41-4.47,4.66
					c0,2.2,1.39,4.42,4.5,4.42c1.12,0,2.15-0.38,3.01-1.09v-2.5h-3.66v-1.69h5.39v4.93l-0.05,0.06
					C312.15,62.58,310.61,63.25,308.75,63.25z"/>
				<polygon points="318.18,63.03 318.18,50.88 326.84,50.88 326.84,52.62 320.02,52.62 320.02,55.9 326.56,55.9 326.56,57.66 
					320.02,57.66 320.02,61.25 327.11,61.25 327.11,63.03 				"/>
				<polygon points="341.86,63.03 341.86,53.81 337.89,59.34 337.39,59.34 333.42,53.78 333.42,63.03 331.58,63.03 331.58,50.88 
					333.63,50.88 337.66,56.78 341.65,50.88 343.7,50.88 343.7,63.03 				"/>
				<polygon points="348.4,63.03 348.4,50.88 357.06,50.88 357.06,52.62 350.24,52.62 350.24,55.9 356.78,55.9 356.78,57.66 
					350.24,57.66 350.24,61.25 357.33,61.25 357.33,63.03 				"/>
				<polygon points="370.54,63.03 363.61,54.43 363.61,63.03 361.77,63.03 361.77,50.88 363.08,50.88 370,59.52 370,50.88 
					371.84,50.88 371.84,63.03 				"/>
				<polygon points="379.77,63.03 379.77,52.59 375.76,52.59 375.76,50.88 385.62,50.88 385.62,52.59 381.61,52.59 381.61,63.03 
									"/>
				<path d="M267.31,63.02l-1.16-2.59h-6.46l-1.14,2.59h-2.03l5.45-12.14h1.9l5.45,12.14H267.31z M265.4,58.7l-2.48-5.65l-2.49,5.65
					H265.4z"/>
				<polygon points="282.05,63.02 275.12,54.42 275.12,63.02 273.29,63.02 273.29,50.88 274.6,50.88 281.51,59.51 281.51,50.88 
					283.35,50.88 283.35,63.02 				"/>
				<polygon points="186.36,63.03 186.36,53.8 182.39,59.33 181.88,59.33 177.92,53.77 177.92,63.03 176.07,63.03 176.07,50.87 
					178.12,50.87 182.15,56.77 186.15,50.87 188.2,50.87 188.2,63.03 				"/>
				<polygon points="192.9,63.03 192.9,50.87 201.56,50.87 201.56,52.61 194.74,52.61 194.74,55.9 201.27,55.9 201.27,57.65 
					194.74,57.65 194.74,61.24 201.82,61.24 201.82,63.03 				"/>
				<polygon points="215.03,63.03 208.1,54.42 208.1,63.03 206.26,63.03 206.26,50.87 207.57,50.87 214.49,59.51 214.49,50.87 
					216.33,50.87 216.33,63.03 				"/>
				<polygon points="224.07,63.03 224.07,52.58 220.06,52.58 220.06,50.87 229.93,50.87 229.93,52.58 225.91,52.58 225.91,63.03 
									"/>
			</g>
		</g>
		<g>
			<linearGradient id="SVGID_1_" gradientUnits="userSpaceOnUse" x1="11.1967" y1="56.5285" x2="49.697" y2="-10.8886">
				<stop  offset="0" style="stop-color:#2C7399"/>
				<stop  offset="0.5" style="stop-color:#7BB6CE"/>
				<stop  offset="1" style="stop-color:#B0DEF1"/>
			</linearGradient>
			<polygon class="st0" points="4.43,4.81 4.43,72.24 38.53,72.24 38.53,36.8 12.59,4.81 			"/>
			<linearGradient id="SVGID_2_" gradientUnits="userSpaceOnUse" x1="40.3245" y1="73.1631" x2="78.8251" y2="5.7456">
				<stop  offset="0" style="stop-color:#2C7399"/>
				<stop  offset="0.5" style="stop-color:#7BB6CE"/>
				<stop  offset="1" style="stop-color:#B0DEF1"/>
			</linearGradient>
			<polygon class="st1" points="77.16,72.24 77.16,4.81 43.05,4.81 43.05,40.25 68.99,72.24 			"/>
		</g>
	</g>
</g>
</svg>
