<svg xmlns="http://www.w3.org/2000/svg" xmlns:xlink="http://www.w3.org/1999/xlink" version="1.1" x="0px" y="0px" viewBox="0 0 30 30" style="enable-background:new 0 0 30 30;" xml:space="preserve">
<style type="text/css">
	.st0{fill:none;stroke:#005B86;stroke-miterlimit:10;}
	.st1{fill:#FFFFFF;}
	.st2{fill:#F5F5F5;}
	.st3{clip-path:url(#SVGID_2_);}
	.st4{clip-path:url(#SVGID_4_);fill:#F2F2F2;}
	.st5{clip-path:url(#SVGID_6_);}
	.st6{clip-path:url(#SVGID_8_);fill:#F2F2F2;}
	.st7{clip-path:url(#SVGID_10_);}
	.st8{clip-path:url(#SVGID_12_);fill:#F2F2F2;}
	.st9{clip-path:url(#SVGID_14_);}
	.st10{clip-path:url(#SVGID_16_);fill:#F2F2F2;}
	.st11{clip-path:url(#SVGID_18_);}
	.st12{clip-path:url(#SVGID_20_);fill:#F2F2F2;}
	.st13{clip-path:url(#SVGID_22_);}
	.st14{clip-path:url(#SVGID_24_);fill:#F2F2F2;}
	.st15{display:none;}
	.st16{display:inline;}
	.st17{fill:#FFFFFF;stroke:#005987;stroke-width:2;stroke-miterlimit:10;}
	.st18{fill:none;stroke:#005987;stroke-width:2;stroke-miterlimit:10;}
	.st19{fill:none;stroke:#005B86;stroke-width:2;stroke-miterlimit:10;}
	.st20{fill:#FFFFFF;stroke:#005B86;stroke-width:2;stroke-miterlimit:10;}
	.st21{fill:#005B86;}
	.st22{display:inline;fill:none;stroke:#005987;stroke-width:2;stroke-miterlimit:10;}
	.st23{display:inline;opacity:0.2;fill:none;stroke:#005987;stroke-width:0;stroke-miterlimit:10;}
	.st24{display:inline;fill:none;stroke:#1475A4;stroke-width:2;stroke-miterlimit:10;}
	.st25{fill:none;stroke:#1475A4;stroke-width:2;stroke-miterlimit:10;}
	.st26{fill:#1475A4;}
	.st27{display:inline;fill:none;stroke:#005B86;stroke-width:2;stroke-miterlimit:10;}
	.st28{fill:#FFFFFF;stroke:#1475A4;stroke-width:2;stroke-miterlimit:10;}
	.st29{display:inline;fill:#FFFFFF;stroke:#005987;stroke-width:2;stroke-miterlimit:10;}
	.st30{display:inline;fill:#FFFFFF;stroke:#005B86;stroke-width:2;stroke-miterlimit:10;}
	.st31{fill:none;stroke:#005B86;stroke-width:2;stroke-linecap:round;stroke-linejoin:round;stroke-miterlimit:10;}
	.st32{display:inline;fill:none;stroke:#005987;stroke-width:2;stroke-linecap:round;stroke-linejoin:round;stroke-miterlimit:10;}
	.st33{fill:#4991B8;stroke:#005987;stroke-width:2;stroke-miterlimit:10;}
	.st34{opacity:0.2;fill:#4991B8;stroke:#005987;stroke-width:0;stroke-miterlimit:10;}
	.st35{fill:#DCE9F1;stroke:#005987;stroke-width:2;stroke-miterlimit:10;}
	.st36{fill:#FFFFFF;stroke:#005987;stroke-width:2;stroke-linecap:round;stroke-miterlimit:10;}
	.st37{fill:#DCE9F1;stroke:#1475A4;stroke-width:2;stroke-miterlimit:10;}
	.st38{display:inline;fill:#FFFFFF;}
	.st39{display:inline;fill:#FFFFFF;stroke:#1475A4;stroke-width:2;stroke-miterlimit:10;}
	.st40{display:inline;fill:none;stroke:#1475A4;stroke-width:2;stroke-linecap:round;stroke-linejoin:round;stroke-miterlimit:10;}
	.st41{opacity:0.2;fill:none;stroke:#1475A4;stroke-width:2;stroke-miterlimit:10;}
	.st42{clip-path:url(#SVGID_26_);fill:none;stroke:#1475A4;stroke-width:2;stroke-miterlimit:10;}
	.st43{fill:#F2F2F2;}
	.st44{fill:none;stroke:#1475A4;stroke-width:2;stroke-linecap:round;stroke-linejoin:round;stroke-miterlimit:10;}
	.st45{fill:#1475A4;stroke:#1475A4;stroke-width:0.25;stroke-miterlimit:10;}
	.st46{fill:#DCE9F1;}
	.st47{fill:none;stroke:#1475A4;stroke-width:1.8;stroke-miterlimit:5;}
	.st48{fill:none;stroke:#1475A4;stroke-width:1.8;stroke-linecap:round;stroke-miterlimit:10;}
	.st49{fill:none;stroke:#1475A4;stroke-width:1.8;stroke-miterlimit:10;}
</style>
<g id="Underlag">
</g>
<g id="Alternativer" class="st15">
	<circle class="st38" cx="-22.2" cy="-19.8" r="43.1"/>
	<line class="st24" x1="4" y1="6.4" x2="14.8" y2="17.2"/>
	
		<rect x="30.8" y="8.3" transform="matrix(0.7071 -0.7071 0.7071 0.7071 -16.7287 36.9576)" class="st24" width="10.8" height="60.8"/>
	<circle class="st24" cx="-22.2" cy="-19.8" r="37.1"/>
	<circle class="st24" cx="-22.2" cy="-19.8" r="28.4"/>
</g>
<g id="Artwork">
	<polygon class="st26" points="27.7,27 27.7,26.1 2.4,26.1 2.4,9 26.8,9 26.8,27 27.7,27 27.7,26.1 27.7,27 28.6,27 28.6,7.2    0.6,7.2 0.6,27.9 28.6,27.9 28.6,27  "/>
	<polyline class="st26" points="11.5,16.8 0.9,26.3 2.1,27.6 12.7,18.2  "/>
	<polyline class="st26" points="28.2,26.4 17.6,16.8 16.4,18.1 27,27.7  "/>
	<path class="st26" d="M1.5,8.9V8.1L1.2,8.9C1.2,8.9,1.3,8.9,1.5,8.9V8.1L1.2,8.9l0.3-0.8L1,8.8c0,0,0,0,0.1,0.1l0.3-0.8L1,8.8   l0.2-0.4L1,8.8l0,0l0.2-0.4L1,8.8c0,0,0.1,0.1,0.2,0.2c1,0.8,4.2,3.6,7.1,6.1c1.5,1.3,2.9,2.5,3.9,3.4c1,0.9,1.7,1.5,1.7,1.5   l0.6,0.5L28.2,8.8L27,7.4L13.9,18.6l0.6,0.7l0.6-0.7c0,0-3.2-2.8-6.5-5.6C7,11.6,5.4,10.2,4.2,9.1C3.6,8.6,3,8.2,2.7,7.8   C2.5,7.7,2.4,7.6,2.2,7.5L2.1,7.4L2,7.3L2,7.3l-0.1,0c-0.1,0-0.1-0.1-0.3-0.1V8.9L1.5,8.9z"/>
</g>
</svg>