<?xml version="1.0" encoding="UTF-8"?>
<svg width="74px" height="118px" viewBox="0 0 74 118" version="1.1" xmlns="http://www.w3.org/2000/svg" xmlns:xlink="http://www.w3.org/1999/xlink">
    <!-- Generator: Sketch 48.2 (47327) - http://www.bohemiancoding.com/sketch -->
    <title>Group 18</title>
    <desc>Created with Sketch.</desc>
    <defs>
        <polygon id="path-1" points="0 0 83 0 83 122 0 122"></polygon>
    </defs>
    <g id="Oljefondet" stroke="none" stroke-width="1" fill="none" fill-rule="evenodd" transform="translate(-1090.000000, -3273.000000)">
        <g id="Group-15" transform="translate(0.000000, 2998.000000)">
            <g id="Group-18" transform="translate(1090.000000, 275.000000)">
                <mask id="mask-2" fill="white">
                    <use xlink:href="#path-1"></use>
                </mask>
                <g id="Clip-2"></g>
                <g id="Page-1" mask="url(#mask-2)">
                    <g transform="translate(0.000000, -6.000000)">
                        <path d="M52.1959246,55.533577 C52.8028291,61.2713834 53.5648017,66.8317319 53.9471248,72.4162792 C54.6235425,82.2893931 52.6905384,91.6032457 47.4850625,100.131981 C44.7633498,104.595317 41.5202875,108.647273 38.0927477,112.56748 C37.8013266,112.898197 37.5901131,113.301511 37.3414694,113.66987 C37.4002884,113.790864 37.4591073,113.911858 37.5179262,114.032853 C39.0044412,113.858083 40.5123449,113.796242 41.9721239,113.495101 C56.0458914,110.607377 65.9381671,97.3652509 63.4303415,81.5015875 C62.5133008,75.7126947 60.3664096,70.4077781 57.644697,65.3018295 C55.9068648,62.0403678 54.0487211,58.8434363 52.1959246,55.533577 Z M36.9885558,0 C42.8891646,18.6492152 51.6558598,35.9352308 61.681815,52.62972 C65.3981023,58.8165487 68.9646688,65.108239 71.1463166,72.0452308 C74.3653166,82.2705718 74.7529869,92.4959128 70.0421248,102.382471 C64.5104711,113.987144 55.3454113,121.182256 42.6779512,123.220334 C23.2463133,126.350046 5.50973023,114.299039 0.953936213,95.2169344 C-0.342753987,89.7856463 -0.201053821,84.3247818 0.686577409,78.8531623 C1.97524684,70.9105755 5.45893206,63.8364572 9.33028754,56.9263529 C13.6240699,49.2580193 18.0782676,41.6811035 22.249065,33.945551 C27.9812377,23.3195852 32.4461297,12.1316694 36.2747078,0.682944155 C36.3495683,0.454399851 36.4297759,0.228544304 36.50731,0 L36.9885558,0 Z" id="Fill-1" fill="#7CB1CB"></path>
                        <path d="M52.1959246,55.533577 C54.0487211,58.8434363 55.9068648,62.0403678 57.644697,65.3018295 C60.3664096,70.4077781 62.5133008,75.7126947 63.4303415,81.5015875 C65.9381671,97.3652509 56.0458914,110.607377 41.9721239,113.495101 C40.5123449,113.796242 39.0044412,113.858083 37.5179262,114.032853 C37.4591073,113.911858 37.4002884,113.790864 37.3414694,113.66987 C37.5901131,113.301511 37.8013266,112.898197 38.0927477,112.56748 C41.5202875,108.647273 44.7633498,104.595317 47.4850625,100.131981 C52.6905384,91.6032457 54.6235425,82.2893931 53.9471248,72.4162792 C53.5648017,66.8317319 52.8028291,61.2713834 52.1959246,55.533577" id="Fill-3" fill="#D4E5ED"></path>
                    </g>
                </g>
            </g>
        </g>
    </g>
</svg>