<svg width="576" height="324" viewBox="0 0 576 324" fill="none" xmlns="http://www.w3.org/2000/svg">
<rect width="576" height="324" fill="#FF9494" fill-opacity="0.25"/>
<rect x="126" width="324" height="324" fill="#FF7171" fill-opacity="0.5"/>
<rect x="126" y="40" width="324" height="243" fill="#462E2E" fill-opacity="0.5"/>
<rect x="126" y="40" width="324" height="243" fill="#FF7171" fill-opacity="0.5" stroke="black" stroke-linecap="round" stroke-linejoin="round" stroke-dasharray="8 8"/>
<path d="M49.1191 168H47.3027V155.959L43.6602 157.297V155.656L48.8359 153.713H49.1191V168ZM61.502 153.771V155.305H61.1699C59.7637 155.331 58.6439 155.747 57.8105 156.555C56.9772 157.362 56.4954 158.498 56.3652 159.963C57.1139 159.104 58.1361 158.674 59.4316 158.674C60.6686 158.674 61.6549 159.11 62.3906 159.982C63.1328 160.855 63.5039 161.981 63.5039 163.361C63.5039 164.826 63.1035 165.998 62.3027 166.877C61.5085 167.756 60.4408 168.195 59.0996 168.195C57.7389 168.195 56.6354 167.674 55.7891 166.633C54.9427 165.585 54.5195 164.237 54.5195 162.59V161.896C54.5195 159.279 55.0762 157.281 56.1895 155.9C57.3092 154.514 58.9727 153.804 61.1797 153.771H61.502ZM59.1289 160.178C58.5104 160.178 57.9408 160.363 57.4199 160.734C56.8991 161.105 56.5378 161.571 56.3359 162.131V162.795C56.3359 163.967 56.5996 164.911 57.127 165.627C57.6543 166.343 58.3118 166.701 59.0996 166.701C59.9134 166.701 60.5514 166.402 61.0137 165.803C61.4824 165.204 61.7168 164.419 61.7168 163.449C61.7168 162.473 61.4792 161.685 61.0039 161.086C60.5352 160.48 59.9102 160.178 59.1289 160.178ZM65.7695 167.053C65.7695 166.74 65.8607 166.48 66.043 166.271C66.2318 166.063 66.5117 165.959 66.8828 165.959C67.2539 165.959 67.5339 166.063 67.7227 166.271C67.918 166.48 68.0156 166.74 68.0156 167.053C68.0156 167.352 67.918 167.603 67.7227 167.805C67.5339 168.007 67.2539 168.107 66.8828 168.107C66.5117 168.107 66.2318 168.007 66.043 167.805C65.8607 167.603 65.7695 167.352 65.7695 167.053ZM65.7793 158.43C65.7793 158.117 65.8704 157.857 66.0527 157.648C66.2415 157.44 66.5215 157.336 66.8926 157.336C67.2637 157.336 67.5436 157.44 67.7324 157.648C67.9277 157.857 68.0254 158.117 68.0254 158.43C68.0254 158.729 67.9277 158.98 67.7324 159.182C67.5436 159.383 67.2637 159.484 66.8926 159.484C66.5215 159.484 66.2415 159.383 66.0527 159.182C65.8704 158.98 65.7793 158.729 65.7793 158.43ZM77.4102 161.75C77.0326 162.199 76.5801 162.561 76.0527 162.834C75.5319 163.107 74.959 163.244 74.334 163.244C73.5137 163.244 72.7975 163.042 72.1855 162.639C71.5801 162.235 71.1113 161.669 70.7793 160.939C70.4473 160.204 70.2812 159.393 70.2812 158.508C70.2812 157.557 70.4603 156.701 70.8184 155.939C71.1829 155.178 71.6973 154.595 72.3613 154.191C73.0254 153.788 73.8001 153.586 74.6855 153.586C76.0918 153.586 77.1986 154.113 78.0059 155.168C78.8197 156.216 79.2266 157.648 79.2266 159.465V159.992C79.2266 162.759 78.6797 164.781 77.5859 166.057C76.4922 167.326 74.8418 167.977 72.6348 168.01H72.2832V166.486H72.6641C74.1549 166.46 75.3008 166.073 76.1016 165.324C76.9023 164.569 77.3385 163.378 77.4102 161.75ZM74.627 161.75C75.2324 161.75 75.7891 161.564 76.2969 161.193C76.8112 160.822 77.1855 160.363 77.4199 159.816V159.094C77.4199 157.909 77.1628 156.945 76.6484 156.203C76.1341 155.461 75.4831 155.09 74.6953 155.09C73.901 155.09 73.263 155.396 72.7812 156.008C72.2995 156.613 72.0586 157.414 72.0586 158.41C72.0586 159.38 72.2897 160.181 72.752 160.812C73.2207 161.438 73.8457 161.75 74.627 161.75Z" fill="black" fill-opacity="0.5"/>
<path d="M500.119 168H498.303V155.959L494.66 157.297V155.656L499.836 153.713H500.119V168ZM512.502 153.771V155.305H512.17C510.764 155.331 509.644 155.747 508.811 156.555C507.977 157.362 507.495 158.498 507.365 159.963C508.114 159.104 509.136 158.674 510.432 158.674C511.669 158.674 512.655 159.11 513.391 159.982C514.133 160.855 514.504 161.981 514.504 163.361C514.504 164.826 514.104 165.998 513.303 166.877C512.508 167.756 511.441 168.195 510.1 168.195C508.739 168.195 507.635 167.674 506.789 166.633C505.943 165.585 505.52 164.237 505.52 162.59V161.896C505.52 159.279 506.076 157.281 507.189 155.9C508.309 154.514 509.973 153.804 512.18 153.771H512.502ZM510.129 160.178C509.51 160.178 508.941 160.363 508.42 160.734C507.899 161.105 507.538 161.571 507.336 162.131V162.795C507.336 163.967 507.6 164.911 508.127 165.627C508.654 166.343 509.312 166.701 510.1 166.701C510.913 166.701 511.551 166.402 512.014 165.803C512.482 165.204 512.717 164.419 512.717 163.449C512.717 162.473 512.479 161.685 512.004 161.086C511.535 160.48 510.91 160.178 510.129 160.178ZM516.77 167.053C516.77 166.74 516.861 166.48 517.043 166.271C517.232 166.063 517.512 165.959 517.883 165.959C518.254 165.959 518.534 166.063 518.723 166.271C518.918 166.48 519.016 166.74 519.016 167.053C519.016 167.352 518.918 167.603 518.723 167.805C518.534 168.007 518.254 168.107 517.883 168.107C517.512 168.107 517.232 168.007 517.043 167.805C516.861 167.603 516.77 167.352 516.77 167.053ZM516.779 158.43C516.779 158.117 516.87 157.857 517.053 157.648C517.242 157.44 517.521 157.336 517.893 157.336C518.264 157.336 518.544 157.44 518.732 157.648C518.928 157.857 519.025 158.117 519.025 158.43C519.025 158.729 518.928 158.98 518.732 159.182C518.544 159.383 518.264 159.484 517.893 159.484C517.521 159.484 517.242 159.383 517.053 159.182C516.87 158.98 516.779 158.729 516.779 158.43ZM528.41 161.75C528.033 162.199 527.58 162.561 527.053 162.834C526.532 163.107 525.959 163.244 525.334 163.244C524.514 163.244 523.798 163.042 523.186 162.639C522.58 162.235 522.111 161.669 521.779 160.939C521.447 160.204 521.281 159.393 521.281 158.508C521.281 157.557 521.46 156.701 521.818 155.939C522.183 155.178 522.697 154.595 523.361 154.191C524.025 153.788 524.8 153.586 525.686 153.586C527.092 153.586 528.199 154.113 529.006 155.168C529.82 156.216 530.227 157.648 530.227 159.465V159.992C530.227 162.759 529.68 164.781 528.586 166.057C527.492 167.326 525.842 167.977 523.635 168.01H523.283V166.486H523.664C525.155 166.46 526.301 166.073 527.102 165.324C527.902 164.569 528.339 163.378 528.41 161.75ZM525.627 161.75C526.232 161.75 526.789 161.564 527.297 161.193C527.811 160.822 528.186 160.363 528.42 159.816V159.094C528.42 157.909 528.163 156.945 527.648 156.203C527.134 155.461 526.483 155.09 525.695 155.09C524.901 155.09 524.263 155.396 523.781 156.008C523.299 156.613 523.059 157.414 523.059 158.41C523.059 159.38 523.29 160.181 523.752 160.812C524.221 161.438 524.846 161.75 525.627 161.75Z" fill="black" fill-opacity="0.5"/>
<path d="M189.059 157H187.184V142.781H189.059V157ZM196.451 155.721C197.096 155.721 197.659 155.525 198.141 155.135C198.622 154.744 198.889 154.256 198.941 153.67H200.65C200.618 154.275 200.41 154.852 200.025 155.398C199.641 155.945 199.127 156.382 198.482 156.707C197.844 157.033 197.167 157.195 196.451 157.195C195.012 157.195 193.867 156.717 193.014 155.76C192.167 154.796 191.744 153.481 191.744 151.814V151.512C191.744 150.483 191.933 149.568 192.311 148.768C192.688 147.967 193.229 147.345 193.932 146.902C194.641 146.46 195.478 146.238 196.441 146.238C197.626 146.238 198.609 146.593 199.391 147.303C200.178 148.012 200.598 148.934 200.65 150.066H198.941C198.889 149.383 198.629 148.823 198.16 148.387C197.698 147.944 197.125 147.723 196.441 147.723C195.523 147.723 194.811 148.055 194.303 148.719C193.801 149.376 193.551 150.33 193.551 151.58V151.922C193.551 153.139 193.801 154.077 194.303 154.734C194.804 155.392 195.52 155.721 196.451 155.721ZM202.203 151.619C202.203 150.584 202.405 149.653 202.809 148.826C203.219 147.999 203.785 147.361 204.508 146.912C205.237 146.463 206.067 146.238 206.998 146.238C208.437 146.238 209.599 146.736 210.484 147.732C211.376 148.729 211.822 150.053 211.822 151.707V151.834C211.822 152.863 211.624 153.787 211.227 154.607C210.836 155.421 210.273 156.056 209.537 156.512C208.808 156.967 207.968 157.195 207.018 157.195C205.585 157.195 204.423 156.697 203.531 155.701C202.646 154.705 202.203 153.387 202.203 151.746V151.619ZM204.02 151.834C204.02 153.006 204.29 153.947 204.83 154.656C205.377 155.366 206.106 155.721 207.018 155.721C207.936 155.721 208.665 155.363 209.205 154.646C209.745 153.924 210.016 152.915 210.016 151.619C210.016 150.46 209.739 149.523 209.186 148.807C208.639 148.084 207.91 147.723 206.998 147.723C206.106 147.723 205.387 148.077 204.84 148.787C204.293 149.497 204.02 150.512 204.02 151.834ZM215.797 146.434L215.855 147.762C216.663 146.746 217.717 146.238 219.02 146.238C221.253 146.238 222.379 147.498 222.398 150.018V157H220.592V150.008C220.585 149.246 220.41 148.683 220.064 148.318C219.726 147.954 219.195 147.771 218.473 147.771C217.887 147.771 217.372 147.928 216.93 148.24C216.487 148.553 216.142 148.963 215.895 149.471V157H214.088V146.434H215.797ZM234.322 155.721C234.967 155.721 235.53 155.525 236.012 155.135C236.493 154.744 236.76 154.256 236.812 153.67H238.521C238.489 154.275 238.281 154.852 237.896 155.398C237.512 155.945 236.998 156.382 236.354 156.707C235.715 157.033 235.038 157.195 234.322 157.195C232.883 157.195 231.738 156.717 230.885 155.76C230.038 154.796 229.615 153.481 229.615 151.814V151.512C229.615 150.483 229.804 149.568 230.182 148.768C230.559 147.967 231.1 147.345 231.803 146.902C232.512 146.46 233.349 146.238 234.312 146.238C235.497 146.238 236.48 146.593 237.262 147.303C238.049 148.012 238.469 148.934 238.521 150.066H236.812C236.76 149.383 236.5 148.823 236.031 148.387C235.569 147.944 234.996 147.723 234.312 147.723C233.395 147.723 232.682 148.055 232.174 148.719C231.673 149.376 231.422 150.33 231.422 151.58V151.922C231.422 153.139 231.673 154.077 232.174 154.734C232.675 155.392 233.391 155.721 234.322 155.721ZM240.074 151.619C240.074 150.584 240.276 149.653 240.68 148.826C241.09 147.999 241.656 147.361 242.379 146.912C243.108 146.463 243.938 146.238 244.869 146.238C246.308 146.238 247.47 146.736 248.355 147.732C249.247 148.729 249.693 150.053 249.693 151.707V151.834C249.693 152.863 249.495 153.787 249.098 154.607C248.707 155.421 248.144 156.056 247.408 156.512C246.679 156.967 245.839 157.195 244.889 157.195C243.456 157.195 242.294 156.697 241.402 155.701C240.517 154.705 240.074 153.387 240.074 151.746V151.619ZM241.891 151.834C241.891 153.006 242.161 153.947 242.701 154.656C243.248 155.366 243.977 155.721 244.889 155.721C245.807 155.721 246.536 155.363 247.076 154.646C247.617 153.924 247.887 152.915 247.887 151.619C247.887 150.46 247.61 149.523 247.057 148.807C246.51 148.084 245.781 147.723 244.869 147.723C243.977 147.723 243.258 148.077 242.711 148.787C242.164 149.497 241.891 150.512 241.891 151.834ZM253.668 146.434L253.727 147.762C254.534 146.746 255.589 146.238 256.891 146.238C259.124 146.238 260.25 147.498 260.27 150.018V157H258.463V150.008C258.456 149.246 258.281 148.683 257.936 148.318C257.597 147.954 257.066 147.771 256.344 147.771C255.758 147.771 255.243 147.928 254.801 148.24C254.358 148.553 254.013 148.963 253.766 149.471V157H251.959V146.434H253.668ZM265.445 143.875V146.434H267.418V147.83H265.445V154.383C265.445 154.806 265.533 155.125 265.709 155.34C265.885 155.548 266.184 155.652 266.607 155.652C266.816 155.652 267.102 155.613 267.467 155.535V157C266.992 157.13 266.529 157.195 266.08 157.195C265.273 157.195 264.664 156.951 264.254 156.463C263.844 155.975 263.639 155.281 263.639 154.383V147.83H261.715V146.434H263.639V143.875H265.445ZM273.922 157.195C272.49 157.195 271.324 156.727 270.426 155.789C269.527 154.845 269.078 153.585 269.078 152.01V151.678C269.078 150.63 269.277 149.695 269.674 148.875C270.077 148.048 270.637 147.404 271.354 146.941C272.076 146.473 272.857 146.238 273.697 146.238C275.071 146.238 276.139 146.691 276.9 147.596C277.662 148.501 278.043 149.796 278.043 151.482V152.234H270.885C270.911 153.276 271.214 154.119 271.793 154.764C272.379 155.402 273.121 155.721 274.02 155.721C274.658 155.721 275.198 155.59 275.641 155.33C276.083 155.07 276.471 154.725 276.803 154.295L277.906 155.154C277.021 156.515 275.693 157.195 273.922 157.195ZM273.697 147.723C272.968 147.723 272.356 147.99 271.861 148.523C271.367 149.051 271.061 149.793 270.943 150.75H276.236V150.613C276.184 149.695 275.937 148.986 275.494 148.484C275.051 147.977 274.452 147.723 273.697 147.723ZM281.852 146.434L281.91 147.762C282.717 146.746 283.772 146.238 285.074 146.238C287.307 146.238 288.434 147.498 288.453 150.018V157H286.646V150.008C286.64 149.246 286.464 148.683 286.119 148.318C285.781 147.954 285.25 147.771 284.527 147.771C283.941 147.771 283.427 147.928 282.984 148.24C282.542 148.553 282.197 148.963 281.949 149.471V157H280.143V146.434H281.852ZM293.629 143.875V146.434H295.602V147.83H293.629V154.383C293.629 154.806 293.717 155.125 293.893 155.34C294.068 155.548 294.368 155.652 294.791 155.652C294.999 155.652 295.286 155.613 295.65 155.535V157C295.175 157.13 294.713 157.195 294.264 157.195C293.456 157.195 292.848 156.951 292.438 156.463C292.027 155.975 291.822 155.281 291.822 154.383V147.83H289.898V146.434H291.822V143.875H293.629ZM308.834 154.197C308.834 153.709 308.648 153.331 308.277 153.064C307.913 152.791 307.271 152.557 306.354 152.361C305.442 152.166 304.716 151.932 304.176 151.658C303.642 151.385 303.245 151.059 302.984 150.682C302.73 150.304 302.604 149.855 302.604 149.334C302.604 148.468 302.968 147.736 303.697 147.137C304.433 146.538 305.37 146.238 306.51 146.238C307.708 146.238 308.678 146.548 309.42 147.166C310.169 147.785 310.543 148.576 310.543 149.539H308.727C308.727 149.044 308.515 148.618 308.092 148.26C307.675 147.902 307.148 147.723 306.51 147.723C305.852 147.723 305.338 147.866 304.967 148.152C304.596 148.439 304.41 148.813 304.41 149.275C304.41 149.712 304.583 150.04 304.928 150.262C305.273 150.483 305.895 150.695 306.793 150.896C307.698 151.098 308.43 151.339 308.99 151.619C309.55 151.899 309.964 152.238 310.23 152.635C310.504 153.025 310.641 153.504 310.641 154.07C310.641 155.014 310.263 155.773 309.508 156.346C308.753 156.912 307.773 157.195 306.568 157.195C305.722 157.195 304.973 157.046 304.322 156.746C303.671 156.447 303.16 156.03 302.789 155.496C302.424 154.956 302.242 154.373 302.242 153.748H304.049C304.081 154.354 304.322 154.835 304.771 155.193C305.227 155.545 305.826 155.721 306.568 155.721C307.252 155.721 307.799 155.584 308.209 155.311C308.626 155.031 308.834 154.66 308.834 154.197ZM319.518 157C319.413 156.792 319.329 156.421 319.264 155.887C318.424 156.759 317.421 157.195 316.256 157.195C315.214 157.195 314.358 156.902 313.688 156.316C313.023 155.724 312.691 154.975 312.691 154.07C312.691 152.97 313.108 152.117 313.941 151.512C314.781 150.9 315.96 150.594 317.477 150.594H319.234V149.764C319.234 149.132 319.046 148.631 318.668 148.26C318.29 147.882 317.734 147.693 316.998 147.693C316.354 147.693 315.813 147.856 315.377 148.182C314.941 148.507 314.723 148.901 314.723 149.363H312.906C312.906 148.836 313.092 148.328 313.463 147.84C313.84 147.345 314.348 146.954 314.986 146.668C315.631 146.382 316.337 146.238 317.105 146.238C318.323 146.238 319.277 146.544 319.967 147.156C320.657 147.762 321.015 148.598 321.041 149.666V154.529C321.041 155.499 321.165 156.271 321.412 156.844V157H319.518ZM316.52 155.623C317.086 155.623 317.623 155.477 318.131 155.184C318.639 154.891 319.007 154.51 319.234 154.041V151.873H317.818C315.605 151.873 314.498 152.521 314.498 153.816C314.498 154.383 314.687 154.826 315.064 155.145C315.442 155.464 315.927 155.623 316.52 155.623ZM324.762 157V147.83H323.092V146.434H324.762V145.35C324.762 144.217 325.064 143.341 325.67 142.723C326.275 142.104 327.132 141.795 328.238 141.795C328.655 141.795 329.068 141.85 329.479 141.961L329.381 143.426C329.075 143.367 328.749 143.338 328.404 143.338C327.818 143.338 327.366 143.51 327.047 143.855C326.728 144.194 326.568 144.682 326.568 145.32V146.434H328.824V147.83H326.568V157H324.762ZM334.977 157.195C333.544 157.195 332.379 156.727 331.48 155.789C330.582 154.845 330.133 153.585 330.133 152.01V151.678C330.133 150.63 330.331 149.695 330.729 148.875C331.132 148.048 331.692 147.404 332.408 146.941C333.131 146.473 333.912 146.238 334.752 146.238C336.126 146.238 337.193 146.691 337.955 147.596C338.717 148.501 339.098 149.796 339.098 151.482V152.234H331.939C331.965 153.276 332.268 154.119 332.848 154.764C333.434 155.402 334.176 155.721 335.074 155.721C335.712 155.721 336.253 155.59 336.695 155.33C337.138 155.07 337.525 154.725 337.857 154.295L338.961 155.154C338.076 156.515 336.747 157.195 334.977 157.195ZM334.752 147.723C334.023 147.723 333.411 147.99 332.916 148.523C332.421 149.051 332.115 149.793 331.998 150.75H337.291V150.613C337.239 149.695 336.992 148.986 336.549 148.484C336.106 147.977 335.507 147.723 334.752 147.723ZM347.857 155.525H354.039V157H345.65V155.672L351.48 147.928H345.738V146.434H353.746V147.713L347.857 155.525ZM355.445 151.619C355.445 150.584 355.647 149.653 356.051 148.826C356.461 147.999 357.027 147.361 357.75 146.912C358.479 146.463 359.309 146.238 360.24 146.238C361.679 146.238 362.841 146.736 363.727 147.732C364.618 148.729 365.064 150.053 365.064 151.707V151.834C365.064 152.863 364.866 153.787 364.469 154.607C364.078 155.421 363.515 156.056 362.779 156.512C362.05 156.967 361.21 157.195 360.26 157.195C358.827 157.195 357.665 156.697 356.773 155.701C355.888 154.705 355.445 153.387 355.445 151.746V151.619ZM357.262 151.834C357.262 153.006 357.532 153.947 358.072 154.656C358.619 155.366 359.348 155.721 360.26 155.721C361.178 155.721 361.907 155.363 362.447 154.646C362.988 153.924 363.258 152.915 363.258 151.619C363.258 150.46 362.981 149.523 362.428 148.807C361.881 148.084 361.152 147.723 360.24 147.723C359.348 147.723 358.629 148.077 358.082 148.787C357.535 149.497 357.262 150.512 357.262 151.834ZM369.039 146.434L369.098 147.762C369.905 146.746 370.96 146.238 372.262 146.238C374.495 146.238 375.621 147.498 375.641 150.018V157H373.834V150.008C373.827 149.246 373.652 148.683 373.307 148.318C372.968 147.954 372.438 147.771 371.715 147.771C371.129 147.771 370.615 147.928 370.172 148.24C369.729 148.553 369.384 148.963 369.137 149.471V157H367.33V146.434H369.039ZM382.75 157.195C381.318 157.195 380.152 156.727 379.254 155.789C378.355 154.845 377.906 153.585 377.906 152.01V151.678C377.906 150.63 378.105 149.695 378.502 148.875C378.906 148.048 379.465 147.404 380.182 146.941C380.904 146.473 381.686 146.238 382.525 146.238C383.899 146.238 384.967 146.691 385.729 147.596C386.49 148.501 386.871 149.796 386.871 151.482V152.234H379.713C379.739 153.276 380.042 154.119 380.621 154.764C381.207 155.402 381.949 155.721 382.848 155.721C383.486 155.721 384.026 155.59 384.469 155.33C384.911 155.07 385.299 154.725 385.631 154.295L386.734 155.154C385.849 156.515 384.521 157.195 382.75 157.195ZM382.525 147.723C381.796 147.723 381.184 147.99 380.689 148.523C380.195 149.051 379.889 149.793 379.771 150.75H385.064V150.613C385.012 149.695 384.765 148.986 384.322 148.484C383.88 147.977 383.281 147.723 382.525 147.723ZM226.637 175.225H228.609V176.699H226.637V180H224.82V176.699H218.346V175.635L224.713 165.781H226.637V175.225ZM220.396 175.225H224.82V168.252L224.605 168.643L220.396 175.225ZM230.367 179.053C230.367 178.74 230.458 178.48 230.641 178.271C230.829 178.063 231.109 177.959 231.48 177.959C231.852 177.959 232.132 178.063 232.32 178.271C232.516 178.48 232.613 178.74 232.613 179.053C232.613 179.352 232.516 179.603 232.32 179.805C232.132 180.007 231.852 180.107 231.48 180.107C231.109 180.107 230.829 180.007 230.641 179.805C230.458 179.603 230.367 179.352 230.367 179.053ZM230.377 170.43C230.377 170.117 230.468 169.857 230.65 169.648C230.839 169.44 231.119 169.336 231.49 169.336C231.861 169.336 232.141 169.44 232.33 169.648C232.525 169.857 232.623 170.117 232.623 170.43C232.623 170.729 232.525 170.98 232.33 171.182C232.141 171.383 231.861 171.484 231.49 171.484C231.119 171.484 230.839 171.383 230.65 171.182C230.468 170.98 230.377 170.729 230.377 170.43ZM237.711 172.012H239.068C239.921 171.999 240.592 171.774 241.08 171.338C241.568 170.902 241.812 170.312 241.812 169.57C241.812 167.904 240.982 167.07 239.322 167.07C238.541 167.07 237.916 167.295 237.447 167.744C236.985 168.187 236.754 168.776 236.754 169.512H234.947C234.947 168.385 235.357 167.451 236.178 166.709C237.005 165.96 238.053 165.586 239.322 165.586C240.663 165.586 241.715 165.941 242.477 166.65C243.238 167.36 243.619 168.346 243.619 169.609C243.619 170.228 243.417 170.827 243.014 171.406C242.617 171.986 242.073 172.419 241.383 172.705C242.164 172.952 242.766 173.363 243.189 173.936C243.619 174.508 243.834 175.208 243.834 176.035C243.834 177.311 243.417 178.324 242.584 179.072C241.751 179.821 240.667 180.195 239.332 180.195C237.997 180.195 236.91 179.834 236.07 179.111C235.237 178.389 234.82 177.435 234.82 176.25H236.637C236.637 176.999 236.881 177.598 237.369 178.047C237.857 178.496 238.512 178.721 239.332 178.721C240.204 178.721 240.872 178.493 241.334 178.037C241.796 177.581 242.027 176.927 242.027 176.074C242.027 175.247 241.773 174.613 241.266 174.17C240.758 173.727 240.025 173.499 239.068 173.486H237.711V172.012ZM257.984 180C257.88 179.792 257.796 179.421 257.73 178.887C256.891 179.759 255.888 180.195 254.723 180.195C253.681 180.195 252.825 179.902 252.154 179.316C251.49 178.724 251.158 177.975 251.158 177.07C251.158 175.97 251.575 175.117 252.408 174.512C253.248 173.9 254.426 173.594 255.943 173.594H257.701V172.764C257.701 172.132 257.512 171.631 257.135 171.26C256.757 170.882 256.201 170.693 255.465 170.693C254.82 170.693 254.28 170.856 253.844 171.182C253.408 171.507 253.189 171.901 253.189 172.363H251.373C251.373 171.836 251.559 171.328 251.93 170.84C252.307 170.345 252.815 169.954 253.453 169.668C254.098 169.382 254.804 169.238 255.572 169.238C256.79 169.238 257.743 169.544 258.434 170.156C259.124 170.762 259.482 171.598 259.508 172.666V177.529C259.508 178.499 259.632 179.271 259.879 179.844V180H257.984ZM254.986 178.623C255.553 178.623 256.09 178.477 256.598 178.184C257.105 177.891 257.473 177.51 257.701 177.041V174.873H256.285C254.072 174.873 252.965 175.521 252.965 176.816C252.965 177.383 253.154 177.826 253.531 178.145C253.909 178.464 254.394 178.623 254.986 178.623ZM268.492 177.197C268.492 176.709 268.307 176.331 267.936 176.064C267.571 175.791 266.93 175.557 266.012 175.361C265.1 175.166 264.374 174.932 263.834 174.658C263.3 174.385 262.903 174.059 262.643 173.682C262.389 173.304 262.262 172.855 262.262 172.334C262.262 171.468 262.626 170.736 263.355 170.137C264.091 169.538 265.029 169.238 266.168 169.238C267.366 169.238 268.336 169.548 269.078 170.166C269.827 170.785 270.201 171.576 270.201 172.539H268.385C268.385 172.044 268.173 171.618 267.75 171.26C267.333 170.902 266.806 170.723 266.168 170.723C265.51 170.723 264.996 170.866 264.625 171.152C264.254 171.439 264.068 171.813 264.068 172.275C264.068 172.712 264.241 173.04 264.586 173.262C264.931 173.483 265.553 173.695 266.451 173.896C267.356 174.098 268.089 174.339 268.648 174.619C269.208 174.899 269.622 175.238 269.889 175.635C270.162 176.025 270.299 176.504 270.299 177.07C270.299 178.014 269.921 178.773 269.166 179.346C268.411 179.912 267.431 180.195 266.227 180.195C265.38 180.195 264.632 180.046 263.98 179.746C263.329 179.447 262.818 179.03 262.447 178.496C262.083 177.956 261.9 177.373 261.9 176.748H263.707C263.74 177.354 263.98 177.835 264.43 178.193C264.885 178.545 265.484 178.721 266.227 178.721C266.91 178.721 267.457 178.584 267.867 178.311C268.284 178.031 268.492 177.66 268.492 177.197ZM281.578 174.834C281.578 176.442 281.21 177.738 280.475 178.721C279.739 179.704 278.743 180.195 277.486 180.195C276.204 180.195 275.195 179.788 274.459 178.975V184.062H272.652V169.434H274.303L274.391 170.605C275.126 169.694 276.148 169.238 277.457 169.238C278.727 169.238 279.729 169.717 280.465 170.674C281.207 171.631 281.578 172.962 281.578 174.668V174.834ZM279.771 174.629C279.771 173.438 279.518 172.497 279.01 171.807C278.502 171.117 277.805 170.771 276.92 170.771C275.826 170.771 275.006 171.257 274.459 172.227V177.275C274.999 178.239 275.826 178.721 276.939 178.721C277.805 178.721 278.492 178.379 279 177.695C279.514 177.005 279.771 175.983 279.771 174.629ZM288.268 180.195C286.835 180.195 285.67 179.727 284.771 178.789C283.873 177.845 283.424 176.585 283.424 175.01V174.678C283.424 173.63 283.622 172.695 284.02 171.875C284.423 171.048 284.983 170.404 285.699 169.941C286.422 169.473 287.203 169.238 288.043 169.238C289.417 169.238 290.484 169.691 291.246 170.596C292.008 171.501 292.389 172.796 292.389 174.482V175.234H285.23C285.257 176.276 285.559 177.119 286.139 177.764C286.725 178.402 287.467 178.721 288.365 178.721C289.003 178.721 289.544 178.59 289.986 178.33C290.429 178.07 290.816 177.725 291.148 177.295L292.252 178.154C291.367 179.515 290.038 180.195 288.268 180.195ZM288.043 170.723C287.314 170.723 286.702 170.99 286.207 171.523C285.712 172.051 285.406 172.793 285.289 173.75H290.582V173.613C290.53 172.695 290.283 171.986 289.84 171.484C289.397 170.977 288.798 170.723 288.043 170.723ZM298.727 178.721C299.371 178.721 299.934 178.525 300.416 178.135C300.898 177.744 301.165 177.256 301.217 176.67H302.926C302.893 177.275 302.685 177.852 302.301 178.398C301.917 178.945 301.402 179.382 300.758 179.707C300.12 180.033 299.443 180.195 298.727 180.195C297.288 180.195 296.142 179.717 295.289 178.76C294.443 177.796 294.02 176.481 294.02 174.814V174.512C294.02 173.483 294.208 172.568 294.586 171.768C294.964 170.967 295.504 170.345 296.207 169.902C296.917 169.46 297.753 169.238 298.717 169.238C299.902 169.238 300.885 169.593 301.666 170.303C302.454 171.012 302.874 171.934 302.926 173.066H301.217C301.165 172.383 300.904 171.823 300.436 171.387C299.973 170.944 299.4 170.723 298.717 170.723C297.799 170.723 297.086 171.055 296.578 171.719C296.077 172.376 295.826 173.33 295.826 174.58V174.922C295.826 176.139 296.077 177.077 296.578 177.734C297.079 178.392 297.796 178.721 298.727 178.721ZM307.408 166.875V169.434H309.381V170.83H307.408V177.383C307.408 177.806 307.496 178.125 307.672 178.34C307.848 178.548 308.147 178.652 308.57 178.652C308.779 178.652 309.065 178.613 309.43 178.535V180C308.954 180.13 308.492 180.195 308.043 180.195C307.236 180.195 306.627 179.951 306.217 179.463C305.807 178.975 305.602 178.281 305.602 177.383V170.83H303.678V169.434H305.602V166.875H307.408ZM321.568 171.055C321.295 171.009 320.999 170.986 320.68 170.986C319.495 170.986 318.691 171.491 318.268 172.5V180H316.461V169.434H318.219L318.248 170.654C318.84 169.71 319.68 169.238 320.768 169.238C321.119 169.238 321.386 169.284 321.568 169.375V171.055ZM329.371 180C329.267 179.792 329.182 179.421 329.117 178.887C328.277 179.759 327.275 180.195 326.109 180.195C325.068 180.195 324.212 179.902 323.541 179.316C322.877 178.724 322.545 177.975 322.545 177.07C322.545 175.97 322.962 175.117 323.795 174.512C324.635 173.9 325.813 173.594 327.33 173.594H329.088V172.764C329.088 172.132 328.899 171.631 328.521 171.26C328.144 170.882 327.587 170.693 326.852 170.693C326.207 170.693 325.667 170.856 325.23 171.182C324.794 171.507 324.576 171.901 324.576 172.363H322.76C322.76 171.836 322.945 171.328 323.316 170.84C323.694 170.345 324.202 169.954 324.84 169.668C325.484 169.382 326.191 169.238 326.959 169.238C328.176 169.238 329.13 169.544 329.82 170.156C330.51 170.762 330.868 171.598 330.895 172.666V177.529C330.895 178.499 331.018 179.271 331.266 179.844V180H329.371ZM326.373 178.623C326.939 178.623 327.477 178.477 327.984 178.184C328.492 177.891 328.86 177.51 329.088 177.041V174.873H327.672C325.458 174.873 324.352 175.521 324.352 176.816C324.352 177.383 324.54 177.826 324.918 178.145C325.296 178.464 325.781 178.623 326.373 178.623ZM336.178 166.875V169.434H338.15V170.83H336.178V177.383C336.178 177.806 336.266 178.125 336.441 178.34C336.617 178.548 336.917 178.652 337.34 178.652C337.548 178.652 337.835 178.613 338.199 178.535V180C337.724 180.13 337.262 180.195 336.812 180.195C336.005 180.195 335.396 179.951 334.986 179.463C334.576 178.975 334.371 178.281 334.371 177.383V170.83H332.447V169.434H334.371V166.875H336.178ZM342.232 180H340.426V169.434H342.232V180ZM340.279 166.631C340.279 166.338 340.367 166.09 340.543 165.889C340.725 165.687 340.992 165.586 341.344 165.586C341.695 165.586 341.962 165.687 342.145 165.889C342.327 166.09 342.418 166.338 342.418 166.631C342.418 166.924 342.327 167.168 342.145 167.363C341.962 167.559 341.695 167.656 341.344 167.656C340.992 167.656 340.725 167.559 340.543 167.363C340.367 167.168 340.279 166.924 340.279 166.631ZM344.654 174.619C344.654 173.584 344.856 172.653 345.26 171.826C345.67 170.999 346.236 170.361 346.959 169.912C347.688 169.463 348.518 169.238 349.449 169.238C350.888 169.238 352.05 169.736 352.936 170.732C353.827 171.729 354.273 173.053 354.273 174.707V174.834C354.273 175.863 354.075 176.787 353.678 177.607C353.287 178.421 352.724 179.056 351.988 179.512C351.259 179.967 350.419 180.195 349.469 180.195C348.036 180.195 346.874 179.697 345.982 178.701C345.097 177.705 344.654 176.387 344.654 174.746V174.619ZM346.471 174.834C346.471 176.006 346.741 176.947 347.281 177.656C347.828 178.366 348.557 178.721 349.469 178.721C350.387 178.721 351.116 178.363 351.656 177.646C352.197 176.924 352.467 175.915 352.467 174.619C352.467 173.46 352.19 172.523 351.637 171.807C351.09 171.084 350.361 170.723 349.449 170.723C348.557 170.723 347.838 171.077 347.291 171.787C346.744 172.497 346.471 173.512 346.471 174.834Z" fill="black"/>
<path d="M226.447 27H224.631V14.959L220.988 16.2969V14.6562L226.164 12.7129H226.447V27ZM231.867 26.0527C231.867 25.7402 231.958 25.4798 232.141 25.2715C232.329 25.0632 232.609 24.959 232.98 24.959C233.352 24.959 233.632 25.0632 233.82 25.2715C234.016 25.4798 234.113 25.7402 234.113 26.0527C234.113 26.3522 234.016 26.6029 233.82 26.8047C233.632 27.0065 233.352 27.1074 232.98 27.1074C232.609 27.1074 232.329 27.0065 232.141 26.8047C231.958 26.6029 231.867 26.3522 231.867 26.0527ZM231.877 17.4297C231.877 17.1172 231.968 16.8568 232.15 16.6484C232.339 16.4401 232.619 16.3359 232.99 16.3359C233.361 16.3359 233.641 16.4401 233.83 16.6484C234.025 16.8568 234.123 17.1172 234.123 17.4297C234.123 17.7292 234.025 17.9798 233.83 18.1816C233.641 18.3835 233.361 18.4844 232.99 18.4844C232.619 18.4844 232.339 18.3835 232.15 18.1816C231.968 17.9798 231.877 17.7292 231.877 17.4297ZM242.521 27H240.705V14.959L237.062 16.2969V14.6562L242.238 12.7129H242.521V27ZM259.484 27C259.38 26.7917 259.296 26.4206 259.23 25.8867C258.391 26.7591 257.388 27.1953 256.223 27.1953C255.181 27.1953 254.325 26.9023 253.654 26.3164C252.99 25.724 252.658 24.9753 252.658 24.0703C252.658 22.9701 253.075 22.1172 253.908 21.5117C254.748 20.8997 255.926 20.5938 257.443 20.5938H259.201V19.7637C259.201 19.1322 259.012 18.6309 258.635 18.2598C258.257 17.8822 257.701 17.6934 256.965 17.6934C256.32 17.6934 255.78 17.8561 255.344 18.1816C254.908 18.5072 254.689 18.901 254.689 19.3633H252.873C252.873 18.8359 253.059 18.3281 253.43 17.8398C253.807 17.3451 254.315 16.9544 254.953 16.668C255.598 16.3815 256.304 16.2383 257.072 16.2383C258.29 16.2383 259.243 16.5443 259.934 17.1562C260.624 17.7617 260.982 18.5983 261.008 19.666V24.5293C261.008 25.4993 261.132 26.2708 261.379 26.8438V27H259.484ZM256.486 25.623C257.053 25.623 257.59 25.4766 258.098 25.1836C258.605 24.8906 258.973 24.5098 259.201 24.041V21.873H257.785C255.572 21.873 254.465 22.5208 254.465 23.8164C254.465 24.3828 254.654 24.8255 255.031 25.1445C255.409 25.4635 255.894 25.623 256.486 25.623ZM269.992 24.1973C269.992 23.709 269.807 23.3314 269.436 23.0645C269.071 22.791 268.43 22.5566 267.512 22.3613C266.6 22.166 265.874 21.9316 265.334 21.6582C264.8 21.3848 264.403 21.0592 264.143 20.6816C263.889 20.304 263.762 19.8548 263.762 19.334C263.762 18.4681 264.126 17.7357 264.855 17.1367C265.591 16.5378 266.529 16.2383 267.668 16.2383C268.866 16.2383 269.836 16.5475 270.578 17.166C271.327 17.7845 271.701 18.5755 271.701 19.5391H269.885C269.885 19.0443 269.673 18.6178 269.25 18.2598C268.833 17.9017 268.306 17.7227 267.668 17.7227C267.01 17.7227 266.496 17.8659 266.125 18.1523C265.754 18.4388 265.568 18.8132 265.568 19.2754C265.568 19.7116 265.741 20.0404 266.086 20.2617C266.431 20.4831 267.053 20.6947 267.951 20.8965C268.856 21.0983 269.589 21.3392 270.148 21.6191C270.708 21.8991 271.122 22.2376 271.389 22.6348C271.662 23.0254 271.799 23.5039 271.799 24.0703C271.799 25.0143 271.421 25.7728 270.666 26.3457C269.911 26.9121 268.931 27.1953 267.727 27.1953C266.88 27.1953 266.132 27.0456 265.48 26.7461C264.829 26.4466 264.318 26.0299 263.947 25.4961C263.583 24.9557 263.4 24.373 263.4 23.748H265.207C265.24 24.3535 265.48 24.8353 265.93 25.1934C266.385 25.5449 266.984 25.7207 267.727 25.7207C268.41 25.7207 268.957 25.584 269.367 25.3105C269.784 25.0306 269.992 24.6595 269.992 24.1973ZM283.078 21.834C283.078 23.4421 282.71 24.7376 281.975 25.7207C281.239 26.7038 280.243 27.1953 278.986 27.1953C277.704 27.1953 276.695 26.7884 275.959 25.9746V31.0625H274.152V16.4336H275.803L275.891 17.6055C276.626 16.694 277.648 16.2383 278.957 16.2383C280.227 16.2383 281.229 16.7168 281.965 17.6738C282.707 18.6309 283.078 19.9622 283.078 21.668V21.834ZM281.271 21.6289C281.271 20.4375 281.018 19.4967 280.51 18.8066C280.002 18.1165 279.305 17.7715 278.42 17.7715C277.326 17.7715 276.506 18.2565 275.959 19.2266V24.2754C276.499 25.2389 277.326 25.7207 278.439 25.7207C279.305 25.7207 279.992 25.3789 280.5 24.6953C281.014 24.0052 281.271 22.9831 281.271 21.6289ZM289.768 27.1953C288.335 27.1953 287.17 26.7266 286.271 25.7891C285.373 24.8451 284.924 23.5853 284.924 22.0098V21.6777C284.924 20.6296 285.122 19.6953 285.52 18.875C285.923 18.0482 286.483 17.4036 287.199 16.9414C287.922 16.4727 288.703 16.2383 289.543 16.2383C290.917 16.2383 291.984 16.6908 292.746 17.5957C293.508 18.5007 293.889 19.7962 293.889 21.4824V22.2344H286.73C286.757 23.276 287.059 24.1191 287.639 24.7637C288.225 25.4017 288.967 25.7207 289.865 25.7207C290.503 25.7207 291.044 25.5905 291.486 25.3301C291.929 25.0697 292.316 24.7246 292.648 24.2949L293.752 25.1543C292.867 26.515 291.538 27.1953 289.768 27.1953ZM289.543 17.7227C288.814 17.7227 288.202 17.9896 287.707 18.5234C287.212 19.0508 286.906 19.793 286.789 20.75H292.082V20.6133C292.03 19.6953 291.783 18.9857 291.34 18.4844C290.897 17.9766 290.298 17.7227 289.543 17.7227ZM300.227 25.7207C300.871 25.7207 301.434 25.5254 301.916 25.1348C302.398 24.7441 302.665 24.2559 302.717 23.6699H304.426C304.393 24.2754 304.185 24.8516 303.801 25.3984C303.417 25.9453 302.902 26.3815 302.258 26.707C301.62 27.0326 300.943 27.1953 300.227 27.1953C298.788 27.1953 297.642 26.7168 296.789 25.7598C295.943 24.7962 295.52 23.4811 295.52 21.8145V21.5117C295.52 20.4831 295.708 19.5684 296.086 18.7676C296.464 17.9668 297.004 17.3451 297.707 16.9023C298.417 16.4596 299.253 16.2383 300.217 16.2383C301.402 16.2383 302.385 16.5931 303.166 17.3027C303.954 18.0124 304.374 18.9336 304.426 20.0664H302.717C302.665 19.3828 302.404 18.8229 301.936 18.3867C301.473 17.944 300.9 17.7227 300.217 17.7227C299.299 17.7227 298.586 18.0547 298.078 18.7188C297.577 19.3763 297.326 20.3301 297.326 21.5801V21.9219C297.326 23.1393 297.577 24.0768 298.078 24.7344C298.579 25.3919 299.296 25.7207 300.227 25.7207ZM308.908 13.875V16.4336H310.881V17.8301H308.908V24.3828C308.908 24.806 308.996 25.125 309.172 25.3398C309.348 25.5482 309.647 25.6523 310.07 25.6523C310.279 25.6523 310.565 25.6133 310.93 25.5352V27C310.454 27.1302 309.992 27.1953 309.543 27.1953C308.736 27.1953 308.127 26.9512 307.717 26.4629C307.307 25.9746 307.102 25.2812 307.102 24.3828V17.8301H305.178V16.4336H307.102V13.875H308.908ZM323.068 18.0547C322.795 18.0091 322.499 17.9863 322.18 17.9863C320.995 17.9863 320.191 18.4909 319.768 19.5V27H317.961V16.4336H319.719L319.748 17.6543C320.34 16.7103 321.18 16.2383 322.268 16.2383C322.619 16.2383 322.886 16.2839 323.068 16.375V18.0547ZM330.871 27C330.767 26.7917 330.682 26.4206 330.617 25.8867C329.777 26.7591 328.775 27.1953 327.609 27.1953C326.568 27.1953 325.712 26.9023 325.041 26.3164C324.377 25.724 324.045 24.9753 324.045 24.0703C324.045 22.9701 324.462 22.1172 325.295 21.5117C326.135 20.8997 327.313 20.5938 328.83 20.5938H330.588V19.7637C330.588 19.1322 330.399 18.6309 330.021 18.2598C329.644 17.8822 329.087 17.6934 328.352 17.6934C327.707 17.6934 327.167 17.8561 326.73 18.1816C326.294 18.5072 326.076 18.901 326.076 19.3633H324.26C324.26 18.8359 324.445 18.3281 324.816 17.8398C325.194 17.3451 325.702 16.9544 326.34 16.668C326.984 16.3815 327.691 16.2383 328.459 16.2383C329.676 16.2383 330.63 16.5443 331.32 17.1562C332.01 17.7617 332.368 18.5983 332.395 19.666V24.5293C332.395 25.4993 332.518 26.2708 332.766 26.8438V27H330.871ZM327.873 25.623C328.439 25.623 328.977 25.4766 329.484 25.1836C329.992 24.8906 330.36 24.5098 330.588 24.041V21.873H329.172C326.958 21.873 325.852 22.5208 325.852 23.8164C325.852 24.3828 326.04 24.8255 326.418 25.1445C326.796 25.4635 327.281 25.623 327.873 25.623ZM337.678 13.875V16.4336H339.65V17.8301H337.678V24.3828C337.678 24.806 337.766 25.125 337.941 25.3398C338.117 25.5482 338.417 25.6523 338.84 25.6523C339.048 25.6523 339.335 25.6133 339.699 25.5352V27C339.224 27.1302 338.762 27.1953 338.312 27.1953C337.505 27.1953 336.896 26.9512 336.486 26.4629C336.076 25.9746 335.871 25.2812 335.871 24.3828V17.8301H333.947V16.4336H335.871V13.875H337.678ZM343.732 27H341.926V16.4336H343.732V27ZM341.779 13.6309C341.779 13.3379 341.867 13.0905 342.043 12.8887C342.225 12.6868 342.492 12.5859 342.844 12.5859C343.195 12.5859 343.462 12.6868 343.645 12.8887C343.827 13.0905 343.918 13.3379 343.918 13.6309C343.918 13.9238 343.827 14.168 343.645 14.3633C343.462 14.5586 343.195 14.6562 342.844 14.6562C342.492 14.6562 342.225 14.5586 342.043 14.3633C341.867 14.168 341.779 13.9238 341.779 13.6309ZM346.154 21.6191C346.154 20.584 346.356 19.653 346.76 18.8262C347.17 17.9993 347.736 17.3613 348.459 16.9121C349.188 16.4629 350.018 16.2383 350.949 16.2383C352.388 16.2383 353.55 16.7363 354.436 17.7324C355.327 18.7285 355.773 20.0534 355.773 21.707V21.834C355.773 22.8626 355.575 23.7871 355.178 24.6074C354.787 25.4212 354.224 26.056 353.488 26.5117C352.759 26.9674 351.919 27.1953 350.969 27.1953C349.536 27.1953 348.374 26.6973 347.482 25.7012C346.597 24.7051 346.154 23.3867 346.154 21.7461V21.6191ZM347.971 21.834C347.971 23.0059 348.241 23.9466 348.781 24.6562C349.328 25.3659 350.057 25.7207 350.969 25.7207C351.887 25.7207 352.616 25.3626 353.156 24.6465C353.697 23.9238 353.967 22.9147 353.967 21.6191C353.967 20.4603 353.69 19.5228 353.137 18.8066C352.59 18.084 351.861 17.7227 350.949 17.7227C350.057 17.7227 349.338 18.0775 348.791 18.7871C348.244 19.4967 347.971 20.5124 347.971 21.834Z" fill="black" fill-opacity="0.5"/>
</svg>
